<svg xmlns="http://www.w3.org/2000/svg" width="40" height="40.00002" viewBox="0 0 40 40.00002">
  <g id="圖層_2" data-name="圖層 2">
    <g id="圖層_1-2" data-name="圖層 1">
      <path d="M20,38.4616A18.37274,18.37274,0,0,1,7.6832,33.7248c1.8032-4.2896,5.9936-6.6136,12.2984-6.6136,6.3112,0,10.5112,2.4352,12.3264,6.7344A18.29989,18.29989,0,0,1,20,38.4616m.2224-28.24a6.83368,6.83368,0,0,1,6.8888,7.1024c0,4.168-3.1,7.5648-6.8888,7.5648s-6.8888-3.3968-6.8888-7.5648a6.83368,6.83368,0,0,1,6.8888-7.1024M20,0A19.96365,19.96365,0,0,0,.1216,22.164c.0256.236.0728.4648.1064.6984.068.4712.1384.9408.2384,1.4008.0584.2704.1352.532.2048.7976.108.412.2184.8216.3512,1.2232.0912.2736.1944.54.296.808.144.3808.2952.756.4616,1.1248.1192.2648.2464.5256.3776.784q.27.5352.5712,1.0504c.1456.2496.292.4952.448.7376.2176.3384.448.6656.6848.9896.1656.2272.328.4544.5032.6728.26.3264.5368.6368.816.9456.176.1952.3456.3952.5296.5824.324.332.6664.6408,1.012.9488.1384.1232.2632.26.4056.38l.0032-.0088a19.96595,19.96595,0,0,0,25.724.012l.0024.008c.1376-.1152.2592-.2472.392-.3664.3536-.3136.704-.6296,1.0344-.9672.1824-.1856.3496-.3832.524-.576.2816-.3112.5608-.624.8224-.9528.1744-.2176.3368-.4448.5016-.6704.2376-.324.4696-.6528.6872-.992a20.8837,20.8837,0,0,0,1.3984-2.5728c.1664-.3688.3184-.744.4632-1.1248.1016-.2688.2048-.5352.2952-.8096.1336-.4016.244-.8112.352-1.224.0696-.2656.1464-.5272.2048-.7968.1008-.4608.1712-.9312.2392-1.4032.0336-.2336.0808-.4616.1064-.6976A20.36775,20.36775,0,0,0,40,20,20.00012,20.00012,0,0,0,20,0" style="fill: #617d82"/>
    </g>
  </g>
</svg>
