<?xml version="1.0" encoding="utf-8"?>
<!-- Generator: Adobe Illustrator 26.5.0, SVG Export Plug-In . SVG Version: 6.00 Build 0)  -->
<svg version="1.1" id="圖層_1" xmlns="http://www.w3.org/2000/svg" xmlns:xlink="http://www.w3.org/1999/xlink" x="0px" y="0px"
	 viewBox="0 0 320 42" style="enable-background:new 0 0 320 42;" xml:space="preserve">
<style type="text/css">
	.st0{fill-rule:evenodd;clip-rule:evenodd;fill:url(#SVGID_1_);}
	.st1{fill-rule:evenodd;clip-rule:evenodd;fill:url(#SVGID_00000018937456898348243120000004651702643754942372_);}
	.st2{fill-rule:evenodd;clip-rule:evenodd;fill:#E3E3E3;}
	.st3{fill-rule:evenodd;clip-rule:evenodd;fill:#FFFFFF;}
	.st4{fill:#FFFCBA;}
	.st5{fill:url(#SVGID_00000013170089238291054210000016622011141184741288_);}
	.st6{fill:#DEF7D9;}
	.st7{fill:url(#SVGID_00000117672792709954785130000011094848965415003550_);}
	.st8{fill:url(#SVGID_00000036931532880657902230000007921510593789338529_);}
	.st9{fill:url(#SVGID_00000069400242752619080070000002095128118885221514_);}
	.st10{opacity:0.32;fill:url(#SVGID_00000141417558166301760140000016644698304506562951_);}
	.st11{fill:url(#SVGID_00000026866774399375394930000011327739615034092469_);}
	.st12{fill:url(#SVGID_00000092414058908907697790000016455115189110066564_);}
	.st13{fill:#FFFFFF;}
	.st14{fill:#157C3D;}
	.st15{fill:url(#SVGID_00000113316984618654621730000001010817663063988114_);}
	.st16{fill:url(#SVGID_00000089551126714389945170000002926804945095460736_);}
	.st17{fill:url(#SVGID_00000091718079823870317910000013919718413281061804_);}
	.st18{fill:url(#SVGID_00000082355661452497323230000008281604036561363369_);}
	.st19{fill:url(#SVGID_00000072249295101538051970000012117260982612675728_);}
	.st20{opacity:0.24;fill:url(#SVGID_00000180327211330359072710000001279614821393438858_);}
	.st21{fill:url(#SVGID_00000010295774737175399540000002447630312542485640_);}
	.st22{fill:url(#SVGID_00000161593374762644658960000004395431536684217526_);}
	.st23{fill:url(#SVGID_00000070094879978759231030000012221768235935400632_);}
	.st24{opacity:0.24;fill:#FFFFFF;}
	.st25{opacity:0.3;fill:#FFFFFF;}
	.st26{fill:url(#SVGID_00000088097175430949769860000004167291664046546849_);}
	.st27{fill:url(#SVGID_00000145771336023419350680000018233922130544766087_);}
	.st28{fill:url(#SVGID_00000119085217960266811920000017837969081561948848_);}
	.st29{fill:url(#SVGID_00000106843759124767686780000010866110896162779048_);}
	.st30{fill:url(#SVGID_00000155136853757235152990000006821719259827922347_);}
	.st31{fill:url(#SVGID_00000170961695238899126860000010957173127160481726_);}
	.st32{fill:url(#SVGID_00000111172193468111926610000005269428844062648458_);}
	.st33{fill:url(#SVGID_00000176042020149296060240000015215813319123734935_);}
	.st34{fill:url(#SVGID_00000104665637187583250470000010371862096415547011_);}
	.st35{fill:url(#SVGID_00000050649677503488200440000015291334363658200993_);}
	.st36{fill:url(#SVGID_00000133505603206795852170000015833663186129307816_);}
	.st37{fill:#1A5426;stroke:#1A5426;stroke-width:0.9412;stroke-linecap:round;stroke-linejoin:round;}
	.st38{font-family:'DFLiYuan-W7-WIN-BF';}
	.st39{font-size:4.92px;}
	.st40{fill:#405357;}
	.st41{fill:#7D9654;}
</style>
<g>
	<g>
		<linearGradient id="SVGID_1_" gradientUnits="userSpaceOnUse" x1="31.2793" y1="4.7568" x2="31.2793" y2="38.1514">
			<stop  offset="0" style="stop-color:#FF7D2F"/>
			<stop  offset="1" style="stop-color:#FF4701"/>
		</linearGradient>
		<path class="st0" d="M56.7,20.6c0-11.1-10.3-20.1-25.5-20.1S5.9,9.5,5.9,20.6S16,40.6,31.2,40.6S56.7,31.6,56.7,20.6z"/>
		
			<linearGradient id="SVGID_00000056420750415820269320000001629582883094427535_" gradientUnits="userSpaceOnUse" x1="31.2793" y1="5.653" x2="31.2793" y2="39.0475">
			<stop  offset="0" style="stop-color:#FF992F"/>
			<stop  offset="1" style="stop-color:#FF6901"/>
		</linearGradient>
		<path style="fill-rule:evenodd;clip-rule:evenodd;fill:url(#SVGID_00000056420750415820269320000001629582883094427535_);" d="
			M56.7,21.4c0-11.1-10.3-20.1-25.5-20.1s-25.3,9-25.3,20.1S16,41.5,31.2,41.5S56.7,32.5,56.7,21.4z"/>
		<path class="st2" d="M53.3,21.1c0-8.3-8.3-14.6-22.1-14.6c-13.8,0-22.5,6.7-22.5,15s8.7,15,22.5,15C45,36.6,53.3,29.4,53.3,21.1z"
			/>
		<path class="st3" d="M53.3,21.9c0-8.3-8.3-14.6-22.1-14.6c-13.8,0-22.5,6.7-22.5,15s8.7,15,22.5,15C45,37.4,53.3,30.2,53.3,21.9z"
			/>
	</g>
	<path class="st4" d="M14.7,17.6c0,0-6.6,2-9,3.8c0,0,2.4-0.3,4-0.1l-1.4,3.2c0,0,7.9-6.2,14.2-5.7C28.8,19.4,14.7,17.6,14.7,17.6z"
		/>
	
		<linearGradient id="SVGID_00000155845260480214945480000008479027018440601230_" gradientUnits="userSpaceOnUse" x1="14.7791" y1="18.2578" x2="14.7791" y2="25.0767">
		<stop  offset="0" style="stop-color:#38C929"/>
		<stop  offset="0.9889" style="stop-color:#14734F"/>
	</linearGradient>
	<path style="fill:url(#SVGID_00000155845260480214945480000008479027018440601230_);" d="M14.6,17.2c0,0-6.6,2-9,3.8
		c0,0,2.4-0.3,4-0.1l-1.4,3.2c0,0,7.9-6.2,14.2-5.7S14.6,17.2,14.6,17.2z"/>
	<path class="st6" d="M27.2,21c-1.5-0.3-7.8-1.8-9.2-2.1c-7.4-1.3-16.6,2.5-16.7,2.6l2.8-3l-4-2.7c0.5-0.1,11.8-2.4,20.3-1
		c1.5,0.3,3,0.6,4.6,0.9c7.1,1.5,6.2,1.3,11.9,0.5c2-0.3,2.9,1,1.4,2.7c-2.6,2.9,3.2,3.4-0.2,3.4C37.9,22.3,32.8,22,27.2,21z"/>
	
		<linearGradient id="SVGID_00000049200885424793263390000017923022628293682048_" gradientUnits="userSpaceOnUse" x1="19.5029" y1="15.0544" x2="19.5029" y2="22.9645">
		<stop  offset="0" style="stop-color:#00CCA1"/>
		<stop  offset="0.9889" style="stop-color:#008FEB"/>
	</linearGradient>
	<path style="fill:url(#SVGID_00000049200885424793263390000017923022628293682048_);" d="M27.2,20.5c-1.5-0.3-7.8-1.8-9.2-2.1
		C10.6,17.1,1.3,21,1.2,21L4,18l-4-2.7c0.5-0.1,11.8-2.4,20.3-1c1.5,0.3,3,0.6,4.6,0.9c7.1,1.5,6.2,1.3,11.9,0.5
		c2-0.3,2.9,1,1.4,2.7c-2.6,2.9,3.2,3.4-0.2,3.4C37.9,21.9,32.8,21.5,27.2,20.5z"/>
	<g>
		<path class="st6" d="M34.6,13.5c1.6,0.2,7.9,1.4,9.3,1.6c7.4,0.9,16.5-3.4,16.6-3.4l-2.6,3.1l4.2,2.5c-0.5,0.1-11.6,3.1-20.2,2
			c-1.5-0.2-3-0.4-4.6-0.7c-7.2-1.1-6.3-1-11.9,0.1c-2,0.4-3-0.9-1.6-2.7c2.4-3.1-3.4-3.3,0.1-3.4C23.8,12.7,28.9,12.8,34.6,13.5z"
			/>
		
			<linearGradient id="SVGID_00000065049970575908293000000005778840897590127746_" gradientUnits="userSpaceOnUse" x1="478.6142" y1="-503.7936" x2="478.6142" y2="-495.8718" gradientTransform="matrix(-0.9986 5.340000e-02 -5.340000e-02 -0.9986 493.3148 -510.6265)">
			<stop  offset="0" style="stop-color:#00CCA1"/>
			<stop  offset="0.9889" style="stop-color:#008FEB"/>
		</linearGradient>
		<path style="fill:url(#SVGID_00000065049970575908293000000005778840897590127746_);" d="M34.3,13c1.6,0.2,7.9,1.4,9.3,1.6
			c7.4,0.9,16.5-3.4,16.6-3.4l-2.6,3.1l4.2,2.5c-0.5,0.1-11.6,3.1-20.2,2c-1.5-0.2-3-0.4-4.6-0.7c-7.2-1.1-6.3-1-11.9,0.1
			c-2,0.4-3-0.9-1.6-2.7c2.4-3.1-3.4-3.3,0.1-3.4C23.6,12.2,28.6,12.2,34.3,13z"/>
	</g>
	<path class="st4" d="M44.3,19.8c0,0,2.6-0.9,6.5-0.7c3.9,0.2,7.6,2,7.6,2l-4.8,0.3l2.8,2.4c0,0-5.8-1.8-9.7-2.1
		c-3.9-0.3-5.7-0.6-5.7-0.6L44.3,19.8z"/>
	
		<linearGradient id="SVGID_00000115502228613728145260000017071137812883710347_" gradientUnits="userSpaceOnUse" x1="41.0296" y1="20.8076" x2="58.4403" y2="20.8076">
		<stop  offset="0" style="stop-color:#38C929"/>
		<stop  offset="0.9889" style="stop-color:#14734F"/>
	</linearGradient>
	<path style="fill:url(#SVGID_00000115502228613728145260000017071137812883710347_);" d="M44.3,18.4c0,0,2.1-0.1,6.5,0.1
		c3.9,0.2,7.6,2,7.6,2l-4.8,0.3l2.8,2.4c0,0-5.8-1.8-9.7-2.1S41,20.5,41,20.5L44.3,18.4z"/>
	<g>
		
			<linearGradient id="SVGID_00000034076198202044411950000014913051495361102516_" gradientUnits="userSpaceOnUse" x1="18.3653" y1="147.9504" x2="22.0998" y2="144.3403" gradientTransform="matrix(0.9916 0.129 -0.129 0.9916 39.0007 -122.6899)">
			<stop  offset="0" style="stop-color:#040000"/>
			<stop  offset="1" style="stop-color:#FFFFFF"/>
		</linearGradient>
		<polygon style="opacity:0.32;fill:url(#SVGID_00000034076198202044411950000014913051495361102516_);" points="42.1,29.9 
			45.9,26.5 36.9,20.9 		"/>
		<g>
			
				<linearGradient id="SVGID_00000062913751988716477760000003703558781888707999_" gradientUnits="userSpaceOnUse" x1="47.4478" y1="-84.39" x2="47.4478" y2="-81.6516" gradientTransform="matrix(0.9931 -0.1174 0.1174 0.9931 -12.6182 96.9412)">
				<stop  offset="0" style="stop-color:#676779"/>
				<stop  offset="0.9888" style="stop-color:#A0A0AC"/>
			</linearGradient>
			<polygon style="fill:url(#SVGID_00000062913751988716477760000003703558781888707999_);" points="16.7,10.2 19.8,8.5 18.4,7.9 
				32.6,6.2 30.4,7.2 31.5,8.4 			"/>
			
				<linearGradient id="SVGID_00000057862879357551841410000016668996330470811025_" gradientUnits="userSpaceOnUse" x1="46.7809" y1="-65.1916" x2="46.7809" y2="-75.3577" gradientTransform="matrix(0.9931 -0.1174 0.1174 0.9931 -12.6182 96.9412)">
				<stop  offset="0" style="stop-color:#D1D2D7"/>
				<stop  offset="0.9888" style="stop-color:#EEEEF1"/>
			</linearGradient>
			<polygon style="fill:url(#SVGID_00000057862879357551841410000016668996330470811025_);" points="33.7,26.6 18.9,28.3 16.7,10.2 
				31.5,8.4 			"/>
			<g>
				<g>
					
						<image style="overflow:visible;opacity:0.6;" width="175" height="268" xlink:href="858BDAD6.png"  transform="matrix(3.222567e-02 -4.191137e-03 4.227712e-03 3.194462e-02 21.8977 14.4789)">
					</image>
					<g>
						<path class="st13" d="M22.7,18.3c0,0,0.1,2,2.8,3.1c0,0,0.3,0.1,0.4,0.3c0,0.2,0.1,0.6,0.1,0.6l-0.1-1.1c0,0,0-0.3,0.2-0.6
							c0.2-0.3,1.6-1.5,1.5-3.1c-0.1-1.5-1.2-2.5-1.2-2.5s-0.7-0.6-0.6-0.8l-1,1.3C24.8,15.5,22.8,16.4,22.7,18.3z"/>
						<path class="st14" d="M22.7,18.3c0,0,0,0.5,0.4,1.2c0.3,0.6,1,1.4,2.5,2l0,0l0,0c0.1,0,0.3,0.1,0.3,0.2l0.1,0.6l0.2,0L26,21.2
							c0,0,0-0.3,0.2-0.5c0,0,0.1-0.1,0.2-0.2c0.4-0.5,1.5-1.6,1.4-2.9C27.6,16,26.5,15,26.4,15c-0.4-0.3-0.6-0.6-0.6-0.7l-0.1-0.1
							l-1,1.3l0,0c0,0-0.5,0.2-1,0.7C23.1,16.7,22.7,17.5,22.7,18.3L22.7,18.3L22.7,18.3z M24.9,15.6l1-1.3l-0.1-0.1
							c-0.2,0.2,0.4,0.7,0.6,0.9c0,0,1.1,0.9,1.2,2.4c0.1,1.3-0.9,2.3-1.3,2.8c-0.1,0.1-0.1,0.1-0.2,0.2c-0.3,0.3-0.2,0.6-0.2,0.7
							l0.1,1.1l0.2,0L26,21.6c0-0.3-0.4-0.3-0.4-0.4l0,0c-2.6-1.1-2.8-3-2.8-3v0C22.9,16.5,24.8,15.6,24.9,15.6L24.9,15.6L24.9,15.6
							z"/>
					</g>
				</g>
				<path class="st14" d="M27.5,17.6c0.2,1.3-0.8,2.6-2.1,2.7c-1.3,0.2-2.6-0.8-2.8-2.1c-0.2-1.3,0.8-2.6,2.1-2.7
					C26.1,15.3,27.3,16.3,27.5,17.6z"/>
				<g>
					<g>
						<polygon class="st13" points="22.6,18.3 27.5,17.7 27.5,17.6 22.6,18.2 						"/>
					</g>
					<g>
						<polygon class="st13" points="25.5,20.3 24.8,15.5 24.7,15.5 25.4,20.3 						"/>
					</g>
					<g>
						<path class="st13" d="M24.7,15.5c0,0-1.2,1-1,2.6l0.1,0C23.6,16.5,24.8,15.6,24.7,15.5L24.7,15.5z"/>
					</g>
					<g>
						<path class="st13" d="M25.4,20.3L25.4,20.3c0,0-1.4-0.6-1.6-2.2l-0.1,0C24,19.7,25.4,20.3,25.4,20.3L25.4,20.3z"/>
					</g>
					<g>
						<path class="st13" d="M24.8,15.6L24.8,15.6c0,0,1.4,0.6,1.6,2.2l0.1,0C26.2,16.1,24.8,15.5,24.8,15.6L24.8,15.6z"/>
					</g>
				</g>
				<g>
					<g>
						<path class="st13" d="M25.8,14.3c0,0,0.2-0.2,0.6-0.1c0.4,0.1,0.5,0.2,0.5,0.2L26.3,15C26.3,15,25.8,14.6,25.8,14.3z"/>
						<path class="st14" d="M25.8,14.3L25.8,14.3c0,0,0.2-0.2,0.5-0.1c0.4,0.1,0.5,0.2,0.5,0.2l0-0.1l-0.6,0.6l0.1,0
							C26.2,14.8,25.9,14.5,25.8,14.3L25.8,14.3z M26.4,15l0.6-0.6l0.1-0.1l-0.1-0.1c0,0-0.1-0.1-0.5-0.2c-0.4-0.1-0.7,0.1-0.7,0.1
							l0,0l0,0c0,0.4,0.5,0.7,0.6,0.8L26.4,15L26.4,15z"/>
					</g>
				</g>
				<g>
					<g>
						<path class="st13" d="M26.8,15.5c0,0,0.8,1.3-0.5,2.6c-0.9,0.8-1.6,1.5-1.3,2.4c0.1,0.4,0.3,0.6,0.9,0.9l0,0.2
							c0,0-0.1-0.5,0.2-0.9c0.3-0.4,1.7-1.6,1.6-3.1C27.6,17.6,27.5,16.2,26.8,15.5z"/>
						<path class="st14" d="M26.7,15.6L26.7,15.6c0,0.1,0.8,1.3-0.4,2.4l-0.1,0.1c-0.8,0.8-1.5,1.4-1.2,2.4c0.1,0.5,0.3,0.6,0.9,0.9
							l0-0.1l0,0.2l0.2,0c0,0-0.1-0.5,0.2-0.8c0-0.1,0.1-0.1,0.2-0.2c0.5-0.5,1.5-1.6,1.4-2.9c0-0.1-0.1-1.5-0.9-2.1L26.7,15.6z
							 M27.5,17.6c0.1,1.2-0.9,2.3-1.3,2.8c-0.1,0.1-0.1,0.2-0.2,0.2c-0.3,0.4-0.2,0.9-0.2,0.9l0.2,0l0-0.2l0,0l0,0
							c-0.6-0.3-0.7-0.4-0.8-0.8c-0.2-0.8,0.4-1.4,1.2-2.2l0.1-0.1c0.7-0.7,0.8-1.3,0.7-1.8c0-0.5-0.3-0.8-0.3-0.9l-0.1,0.1
							C27.4,16.2,27.5,17.6,27.5,17.6z"/>
					</g>
				</g>
			</g>
			
				<linearGradient id="SVGID_00000164473107766490138460000000692998903205538474_" gradientUnits="userSpaceOnUse" x1="54.25" y1="-82.7805" x2="54.25" y2="-73.3048" gradientTransform="matrix(0.9931 -0.1174 0.1174 0.9931 -12.6182 96.9412)">
				<stop  offset="0" style="stop-color:#8B8B9A"/>
				<stop  offset="0.9888" style="stop-color:#C2C1CC"/>
			</linearGradient>
			<polygon style="fill:url(#SVGID_00000164473107766490138460000000692998903205538474_);" points="31.6,8.5 30,7.3 32.7,6.1 
				34.6,23.5 33.5,24.8 			"/>
			
				<linearGradient id="SVGID_00000112611303371157166480000006269738258756258946_" gradientUnits="userSpaceOnUse" x1="41.9225" y1="-84.6346" x2="41.9225" y2="-84.0161" gradientTransform="matrix(0.9931 -0.1174 0.1174 0.9931 -12.6182 96.9412)">
				<stop  offset="0" style="stop-color:#8B8B9A"/>
				<stop  offset="0.9888" style="stop-color:#ABAAB7"/>
			</linearGradient>
			<polygon style="fill:url(#SVGID_00000112611303371157166480000006269738258756258946_);" points="18.4,7.9 18.8,9.1 19.8,8.5 			
				"/>
			
				<linearGradient id="SVGID_00000183935265148482820480000002575559587934964126_" gradientUnits="userSpaceOnUse" x1="47.4909" y1="-84.604" x2="47.4909" y2="-83.5129" gradientTransform="matrix(0.9931 -0.1174 0.1174 0.9931 -12.6182 96.9412)">
				<stop  offset="0" style="stop-color:#D1D2D7"/>
				<stop  offset="0.9888" style="stop-color:#E6E6E9"/>
			</linearGradient>
			<path style="fill:url(#SVGID_00000183935265148482820480000002575559587934964126_);" d="M32.7,6.1L18.4,7.9l1.4,0.6l-3.1,1.7
				l14.8-1.7l-1.1-1L32.7,6.1z M31,8.3L17.5,9.9l2.8-1.4L19,7.9l12.9-1.5l-1.9,1L31,8.3z"/>
			
				<linearGradient id="SVGID_00000085228376376404460520000012400302908201062840_" gradientUnits="userSpaceOnUse" x1="44.8313" y1="-81.7696" x2="44.8313" y2="-80.5963" gradientTransform="matrix(0.9931 -0.1174 0.1174 0.9931 -12.6182 96.9412)">
				<stop  offset="0" style="stop-color:#676779"/>
				<stop  offset="0.9888" style="stop-color:#A0A0AC"/>
			</linearGradient>
			<path style="fill:url(#SVGID_00000085228376376404460520000012400302908201062840_);" d="M22.7,10.4c0,0.2-0.1,0.4-0.3,0.4
				c-0.2,0-0.4-0.1-0.4-0.3c0-0.2,0.1-0.4,0.3-0.4C22.5,10.1,22.7,10.2,22.7,10.4z"/>
			
				<linearGradient id="SVGID_00000028290309129821060300000004070798748899060925_" gradientUnits="userSpaceOnUse" x1="49.5816" y1="-81.7651" x2="49.5816" y2="-80.5917" gradientTransform="matrix(0.9931 -0.1174 0.1174 0.9931 -12.6182 96.9412)">
				<stop  offset="0" style="stop-color:#676779"/>
				<stop  offset="0.9888" style="stop-color:#A0A0AC"/>
			</linearGradient>
			<path style="fill:url(#SVGID_00000028290309129821060300000004070798748899060925_);" d="M27.4,9.9c0,0.2-0.1,0.4-0.3,0.4
				c-0.2,0-0.4-0.1-0.4-0.3c0-0.2,0.1-0.4,0.3-0.4C27.2,9.5,27.4,9.7,27.4,9.9z"/>
			
				<linearGradient id="SVGID_00000134237576450754560740000004318617344948300190_" gradientUnits="userSpaceOnUse" x1="47.433" y1="-79.6052" x2="47.433" y2="-72.563" gradientTransform="matrix(0.9931 -0.1174 0.1174 0.9931 -12.6182 96.9412)">
				<stop  offset="0" style="stop-color:#676779"/>
				<stop  offset="0.9888" style="stop-color:#A0A0AC"/>
			</linearGradient>
			<path style="opacity:0.24;fill:url(#SVGID_00000134237576450754560740000004318617344948300190_);" d="M27,10l0.6,3
				c0.1,0.5-0.3,1-0.9,1.1l-2.5,0.3c-0.5,0.1-1-0.3-1.1-0.9l-0.5-3.1l-0.4,0.2l0.5,3.3c0.1,0.5,0.6,0.9,1.1,0.9l3.2-0.4
				c0.5-0.1,0.9-0.5,0.9-1.1L27.4,10L27,10z"/>
			
				<linearGradient id="SVGID_00000181049376149022480260000002997726757627697306_" gradientUnits="userSpaceOnUse" x1="51.7556" y1="-65.974" x2="38.8467" y2="-67.0598" gradientTransform="matrix(0.9931 -0.1174 0.1174 0.9931 -12.6182 96.9412)">
				<stop  offset="0" style="stop-color:#71AD2D"/>
				<stop  offset="0.9888" style="stop-color:#9DC828"/>
			</linearGradient>
			<polygon style="fill:url(#SVGID_00000181049376149022480260000002997726757627697306_);" points="33.7,26.6 18.9,28.3 18.4,24.4 
				33.3,22.7 			"/>
			
				<linearGradient id="SVGID_00000149368768628602865530000012327503010920055426_" gradientUnits="userSpaceOnUse" x1="54.9512" y1="-70.19" x2="54.9512" y2="-66.51" gradientTransform="matrix(0.9931 -0.1174 0.1174 0.9931 -12.6182 96.9412)">
				<stop  offset="0" style="stop-color:#71AD2D"/>
				<stop  offset="0.9888" style="stop-color:#529835"/>
			</linearGradient>
			<polygon style="fill:url(#SVGID_00000149368768628602865530000012327503010920055426_);" points="33.5,24.8 34.7,23.5 34.3,19.9 
				33.1,21.1 			"/>
			
				<linearGradient id="SVGID_00000161625165628982610330000000924078334398003077_" gradientUnits="userSpaceOnUse" x1="47.2081" y1="-79.6673" x2="47.2081" y2="-81.1839" gradientTransform="matrix(0.9931 -0.1174 0.1174 0.9931 -12.6182 96.9412)">
				<stop  offset="0" style="stop-color:#71AD2D"/>
				<stop  offset="0.9888" style="stop-color:#588D35"/>
			</linearGradient>
			<path style="fill:url(#SVGID_00000161625165628982610330000000924078334398003077_);" d="M26.9,10l0.3,2.4c0.1,0.5-0.3,1-0.9,1.1
				l-2.5,0.3c-0.5,0.1-1-0.3-1.1-0.9l-0.3-2.4l-0.4,0l0.3,2.7c0.1,0.5,0.6,0.9,1.1,0.9l3.2-0.4c0.5-0.1,0.9-0.5,0.9-1.1L27.3,10
				L26.9,10z"/>
			<path class="st24" d="M27.1,10.3l0.3,2.4c0,0.7-0.7,0.8-0.7,0.8L23.4,14c0,0-0.6-0.1-0.6-0.4c0,0,0.1,0.5,0.7,0.5l3.3-0.4
				c0.9-0.2,0.8-1,0.8-1L27.1,10.3C27.2,10.2,27.1,10.3,27.1,10.3z"/>
			<polygon class="st25" points="16.9,12.6 18.8,28.3 29.1,27.1 19.3,27.7 			"/>
		</g>
		<g>
			
				<linearGradient id="SVGID_00000020378452183057069720000000038640542990671807_" gradientUnits="userSpaceOnUse" x1="27.3263" y1="77.8516" x2="27.3263" y2="74.5902" gradientTransform="matrix(0.9971 7.630000e-02 -7.630000e-02 0.9971 15.6685 -68.7301)">
				<stop  offset="0" style="stop-color:#D4790F"/>
				<stop  offset="1" style="stop-color:#F4A218"/>
			</linearGradient>
			<path style="fill:url(#SVGID_00000020378452183057069720000000038640542990671807_);" d="M39.3,10.5l0.2-2.4c0-0.5-0.4-1-0.9-1
				l-2.5-0.2c-0.5,0-1,0.4-1.1,0.9l-0.2,2.4l-0.4,0l0.2-2.7c0-0.5,0.5-0.9,1.1-0.9l3.2,0.2c0.5,0,0.9,0.5,0.9,1l-0.2,2.7L39.3,10.5z
				"/>
			<path class="st24" d="M39.4,10.2l0.2-2.4c0-0.7-0.7-0.8-0.7-0.8l-3.3-0.3c0,0-0.6,0.1-0.6,0.5c0,0,0.1-0.5,0.6-0.6l3.3,0.3
				c0.9,0.1,0.8,0.9,0.8,0.9L39.4,10.2C39.5,10.3,39.4,10.2,39.4,10.2z"/>
			
				<linearGradient id="SVGID_00000042714459073215371010000013536296334888791707_" gradientUnits="userSpaceOnUse" x1="27.1078" y1="76.4547" x2="27.1078" y2="79.1899" gradientTransform="matrix(0.9971 7.630000e-02 -7.630000e-02 0.9971 15.6685 -68.7301)">
				<stop  offset="0" style="stop-color:#676779"/>
				<stop  offset="0.9888" style="stop-color:#A0A0AC"/>
			</linearGradient>
			<polygon style="fill:url(#SVGID_00000042714459073215371010000013536296334888791707_);" points="28.6,10.6 32,9.6 30.7,8.7 
				45,9.8 42.6,10.3 43.5,11.8 			"/>
			
				<linearGradient id="SVGID_00000115504410889926272850000007594825524542355099_" gradientUnits="userSpaceOnUse" x1="26.4234" y1="95.815" x2="26.4234" y2="85.652" gradientTransform="matrix(0.9971 7.630000e-02 -7.630000e-02 0.9971 15.6685 -68.7301)">
				<stop  offset="0" style="stop-color:#D1D2D7"/>
				<stop  offset="0.9888" style="stop-color:#EEEEF1"/>
			</linearGradient>
			<polygon style="fill:url(#SVGID_00000115504410889926272850000007594825524542355099_);" points="42.1,30 27.2,28.8 28.6,10.6 
				43.5,11.8 			"/>
			
				<linearGradient id="SVGID_00000042010875560568118820000010763811378117742518_" gradientUnits="userSpaceOnUse" x1="33.912" y1="78.0505" x2="33.912" y2="87.5268" gradientTransform="matrix(0.9971 7.630000e-02 -7.630000e-02 0.9971 15.6685 -68.7301)">
				<stop  offset="0" style="stop-color:#8B8B9A"/>
				<stop  offset="0.9888" style="stop-color:#C2C1CC"/>
			</linearGradient>
			<polygon style="fill:url(#SVGID_00000042010875560568118820000010763811378117742518_);" points="43.6,11.8 42.2,10.3 45.1,9.7 
				43.6,27.1 42.3,28.2 			"/>
			
				<linearGradient id="SVGID_00000131355773722022910050000010303827504886102446_" gradientUnits="userSpaceOnUse" x1="21.5837" y1="76.2198" x2="21.5837" y2="76.8375" gradientTransform="matrix(0.9971 7.630000e-02 -7.630000e-02 0.9971 15.6685 -68.7301)">
				<stop  offset="0" style="stop-color:#8B8B9A"/>
				<stop  offset="0.9888" style="stop-color:#ABAAB7"/>
			</linearGradient>
			<polygon style="fill:url(#SVGID_00000131355773722022910050000010303827504886102446_);" points="30.7,8.7 30.9,10 32,9.6 			"/>
			
				<linearGradient id="SVGID_00000025414675233858535640000008744747906615453574_" gradientUnits="userSpaceOnUse" x1="27.1514" y1="76.2282" x2="27.1514" y2="77.3253" gradientTransform="matrix(0.9971 7.630000e-02 -7.630000e-02 0.9971 15.6685 -68.7301)">
				<stop  offset="0" style="stop-color:#D1D2D7"/>
				<stop  offset="0.9888" style="stop-color:#E6E6E9"/>
			</linearGradient>
			<path style="fill:url(#SVGID_00000025414675233858535640000008744747906615453574_);" d="M45.1,9.7l-14.4-1L32,9.6l-3.4,1.1
				l14.9,1.1l-0.9-1.2L45.1,9.7z M43,11.6l-13.6-1l3-0.9l-1.2-0.8l13,1l-2,0.6L43,11.6z"/>
			
				<linearGradient id="SVGID_00000042731292395458368260000013636780652746172807_" gradientUnits="userSpaceOnUse" x1="24.4881" y1="79.0783" x2="24.4881" y2="80.2528" gradientTransform="matrix(0.9971 7.630000e-02 -7.630000e-02 0.9971 15.6685 -68.7301)">
				<stop  offset="0" style="stop-color:#676779"/>
				<stop  offset="0.9888" style="stop-color:#A0A0AC"/>
			</linearGradient>
			<path style="fill:url(#SVGID_00000042731292395458368260000013636780652746172807_);" d="M34.4,12c0,0.2-0.2,0.4-0.4,0.3
				c-0.2,0-0.4-0.2-0.3-0.4c0-0.2,0.2-0.4,0.4-0.3C34.3,11.6,34.4,11.8,34.4,12z"/>
			
				<linearGradient id="SVGID_00000052066995183069436000000008585073848299064752_" gradientUnits="userSpaceOnUse" x1="29.2385" y1="79.0753" x2="29.2385" y2="80.2492" gradientTransform="matrix(0.9971 7.630000e-02 -7.630000e-02 0.9971 15.6685 -68.7301)">
				<stop  offset="0" style="stop-color:#676779"/>
				<stop  offset="0.9888" style="stop-color:#A0A0AC"/>
			</linearGradient>
			<path style="fill:url(#SVGID_00000052066995183069436000000008585073848299064752_);" d="M39.2,12.4c0,0.2-0.2,0.4-0.4,0.3
				c-0.2,0-0.4-0.2-0.3-0.4c0-0.2,0.2-0.4,0.4-0.3C39,12,39.2,12.2,39.2,12.4z"/>
			
				<linearGradient id="SVGID_00000118392686338029112110000002906731509524473525_" gradientUnits="userSpaceOnUse" x1="19.4002" y1="93.9236" x2="34.8983" y2="95.0902" gradientTransform="matrix(0.9971 7.630000e-02 -7.630000e-02 0.9971 15.6685 -68.7301)">
				<stop  offset="0" style="stop-color:#EFB416"/>
				<stop  offset="1" style="stop-color:#F4A218"/>
			</linearGradient>
			<polygon style="fill:url(#SVGID_00000118392686338029112110000002906731509524473525_);" points="42.1,30 27.2,28.8 27.5,25 
				42.4,26.1 			"/>
			
				<linearGradient id="SVGID_00000132073288012673476670000001614306905747788162_" gradientUnits="userSpaceOnUse" x1="33.9049" y1="92.1436" x2="35.3798" y2="92.2546" gradientTransform="matrix(0.9971 7.630000e-02 -7.630000e-02 0.9971 15.6685 -68.7301)">
				<stop  offset="0" style="stop-color:#D4790F"/>
				<stop  offset="1" style="stop-color:#F4A218"/>
			</linearGradient>
			<polygon style="fill:url(#SVGID_00000132073288012673476670000001614306905747788162_);" points="42.3,28.2 43.6,27.1 43.9,23.5 
				42.6,24.5 			"/>
			
				<linearGradient id="SVGID_00000035515948659744530190000005567641135393473714_" gradientUnits="userSpaceOnUse" x1="26.8875" y1="77.8533" x2="26.8875" y2="74.5913" gradientTransform="matrix(0.9971 7.630000e-02 -7.630000e-02 0.9971 15.6685 -68.7301)">
				<stop  offset="0" style="stop-color:#D4790F"/>
				<stop  offset="1" style="stop-color:#F4A218"/>
			</linearGradient>
			<path style="fill:url(#SVGID_00000035515948659744530190000005567641135393473714_);" d="M38.7,12.4l0.2-2.4c0-0.5-0.4-1-0.9-1
				l-2.5-0.2c-0.5,0-1,0.4-1.1,0.9l-0.2,2.4l-0.4,0L34,9.3c0-0.5,0.5-0.9,1.1-0.9l3.2,0.2c0.5,0,0.9,0.5,0.9,1L39,12.4L38.7,12.4z"
				/>
			<path class="st24" d="M38.9,12.1l0.2-2.4c0-0.7-0.7-0.8-0.7-0.8L35,8.6c0,0-0.6,0.1-0.6,0.5c0,0,0.1-0.5,0.6-0.6l3.3,0.3
				c0.9,0.1,0.8,0.9,0.8,0.9L38.9,12.1C38.9,12.2,38.9,12.1,38.9,12.1z"/>
			<polygon class="st25" points="28.3,13.1 27.1,28.8 37.5,29.6 27.8,28.4 			"/>
			<g>
				<g>
					
						<image style="overflow:visible;opacity:0.6;" width="175" height="268" xlink:href="858BDAD5.png"  transform="matrix(3.595871e-02 4.481886e-03 -4.520778e-03 3.564540e-02 32.6854 14.091)">
					</image>
					<g>
						<path class="st13" d="M32.5,18.4c0,0-0.5,2.1,2.1,4.1c0,0,0.4,0.2,0.3,0.4c0,0.2-0.1,0.7-0.1,0.7l0.2-1.2c0,0,0-0.3,0.4-0.6
							c0.3-0.3,2.2-1.2,2.5-2.9c0.3-1.7-0.6-3-0.6-3s-0.6-0.8-0.4-1L35.5,16C35.5,16,33.1,16.4,32.5,18.4z"/>
						<path class="st14" d="M32.4,18.4c0,0-0.1,0.6,0.1,1.4c0.2,0.7,0.7,1.8,2.1,2.9l0,0l0,0c0.1,0.1,0.3,0.2,0.3,0.3l-0.1,0.7
							l0.2,0l0.2-1.2c0,0,0-0.3,0.3-0.5c0,0,0.1-0.1,0.2-0.2c0.6-0.4,2-1.3,2.3-2.8c0.3-1.7-0.6-3-0.6-3.1C37.1,15.5,37,15.1,37,15
							l-0.1-0.1l-1.4,1.1l0,0c0,0-0.6,0.1-1.3,0.5C33.3,16.9,32.7,17.5,32.4,18.4L32.4,18.4L32.4,18.4z M35.6,16.1L37,15l-0.1-0.1
							c-0.2,0.2,0.2,0.9,0.4,1.2c0,0,0.9,1.3,0.6,3c-0.3,1.4-1.6,2.3-2.2,2.7c-0.1,0.1-0.2,0.1-0.2,0.2C35,22.1,35,22.4,35,22.5
							l-0.2,1.2l0.2,0l0.1-0.7c0-0.3-0.3-0.5-0.4-0.5l0,0c-2.5-1.9-2.1-4-2.1-4l0,0C33.2,16.5,35.5,16.1,35.6,16.1L35.6,16.1
							L35.6,16.1z"/>
					</g>
				</g>
				<path class="st14" d="M37.8,19c-0.2,1.5-1.6,2.5-3.1,2.4c-1.5-0.2-2.6-1.5-2.4-3c0.2-1.5,1.6-2.5,3.1-2.4
					C36.9,16.2,38,17.5,37.8,19z"/>
				<g>
					<g>
						<polygon class="st13" points="32.4,18.4 37.8,19.1 37.8,19 32.4,18.3 						"/>
					</g>
					<g>
						
							<rect x="32.5" y="18.6" transform="matrix(0.1236 -0.9923 0.9923 0.1236 12.3022 51.2528)" class="st13" width="5.4" height="0.1"/>
					</g>
					<g>
						<path class="st13" d="M35.5,16c0,0-1.6,0.8-1.8,2.5l0.1,0C34,16.8,35.5,16.1,35.5,16L35.5,16z"/>
					</g>
					<g>
						<path class="st13" d="M34.8,21.3L34.8,21.3c0,0-1.3-1.1-1.1-2.8l-0.1,0C33.4,20.3,34.8,21.4,34.8,21.3L34.8,21.3z"/>
					</g>
					<g>
						<path class="st13" d="M35.5,16.1L35.5,16.1c0,0,1.3,1.1,1.1,2.8l0.1,0C36.9,17.1,35.6,16,35.5,16.1L35.5,16.1z"/>
					</g>
				</g>
				<g>
					<g>
						<path class="st13" d="M36.9,15c0,0,0.3-0.2,0.7,0.1c0.4,0.2,0.5,0.4,0.5,0.4l-0.8,0.5C37.3,15.8,36.8,15.3,36.9,15z"/>
						<path class="st14" d="M37,15L37,15c0,0,0.2-0.1,0.5,0.1c0.4,0.2,0.5,0.3,0.5,0.3l0-0.2l-0.8,0.5l0.1,0
							C37.2,15.6,37,15.3,37,15L37,15z M37.3,15.9l0.8-0.5l0.1-0.1l-0.1-0.1c0,0-0.1-0.1-0.5-0.4c-0.4-0.3-0.8-0.1-0.8-0.1l0,0l0,0
							c-0.1,0.4,0.4,0.9,0.4,1L37.3,15.9L37.3,15.9z"/>
					</g>
				</g>
				<g>
					<g>
						<path class="st13" d="M37.6,16.6c0,0,0.5,1.7-1.2,2.6c-1.2,0.7-2.1,1.1-2.1,2.2c0,0.5,0.1,0.7,0.7,1.2l0,0.2
							c0,0,0-0.6,0.4-0.9c0.4-0.3,2.3-1.3,2.5-2.9C37.9,19,38.2,17.5,37.6,16.6z"/>
						<path class="st14" d="M37.5,16.6L37.5,16.6c0,0.1,0.5,1.6-1.2,2.5l-0.2,0.1c-1.1,0.6-2,1.1-2,2.2c0,0.6,0.2,0.8,0.7,1.3l0-0.1
							l0,0.2l0.2,0c0,0,0-0.5,0.4-0.8c0.1,0,0.1-0.1,0.3-0.2c0.7-0.4,2.1-1.4,2.3-2.7c0-0.1,0.3-1.6-0.3-2.6L37.5,16.6z M37.8,19
							c-0.2,1.3-1.6,2.2-2.2,2.6c-0.1,0.1-0.2,0.1-0.3,0.2c-0.5,0.3-0.5,0.9-0.5,1l0.2,0l0-0.2l0-0.1l0,0c-0.6-0.5-0.7-0.6-0.7-1.1
							c0-1,0.8-1.4,1.9-2l0.2-0.1c0.9-0.5,1.2-1.2,1.3-1.7c0.1-0.6,0-1,0-1l-0.2,0.1C38.1,17.5,37.8,19,37.8,19z"/>
					</g>
				</g>
			</g>
		</g>
	</g>
	<g>
		<text transform="matrix(1.0088 0 0 0.95 21.3523 28.1903)"><tspan x="0" y="0" class="st37 st38 st39">環保產品</tspan><tspan x="-2.5" y="6.2" class="st37 st38 st39">線上採購網</tspan></text>
		<text transform="matrix(1.0088 0 0 0.95 21.3523 28.1903)"><tspan x="0" y="0" class="st13 st38 st39">環保產品</tspan><tspan x="-2.5" y="6.2" class="st13 st38 st39">線上採購網</tspan></text>
	</g>
</g>
<path class="st40" d="M68.6,5.3c0.2-0.2,0.4-0.4,0.7-0.5c0.1,0,0.3-0.1,0.4-0.1c0.1,0,0.3,0,0.4,0.1c0.2,0.1,0.4,0.3,0.5,0.5
	c0,0.1,0,0.2,0,0.3c0,0.1,0,0.3-0.1,0.4c-0.3,0.5-0.7,1-1.1,1.5c-0.1,0.1-0.1,0.2-0.1,0.3v7.4c0,0.3-0.1,0.5-0.3,0.7
	s-0.4,0.3-0.7,0.3c-0.3,0-0.5-0.1-0.7-0.3s-0.3-0.4-0.3-0.7V10c0,0,0-0.1,0-0.1c0,0-0.1,0-0.1,0c-0.1,0.1-0.3,0.3-0.4,0.4
	c-0.2,0.2-0.4,0.3-0.6,0.3c0,0-0.1,0-0.1,0c-0.3,0-0.5-0.2-0.7-0.4c-0.1-0.2-0.2-0.4-0.2-0.6c0,0,0-0.1,0-0.1c0-0.3,0.2-0.5,0.4-0.7
	c0.6-0.5,1.1-1,1.6-1.6C67.7,6.5,68.2,5.9,68.6,5.3z M67.9,1.7c0.2-0.2,0.4-0.4,0.7-0.5c0.1,0,0.2,0,0.4,0c0.2,0,0.3,0,0.5,0.1
	c0.2,0.1,0.4,0.3,0.4,0.5c0,0.1,0,0.1,0,0.2c0,0.2-0.1,0.3-0.2,0.5c-0.4,0.5-0.9,1-1.5,1.5c-0.6,0.5-1.1,1-1.6,1.4
	c-0.1,0.1-0.3,0.2-0.5,0.2c-0.1,0-0.1,0-0.2,0c-0.3-0.1-0.5-0.2-0.6-0.4c-0.1-0.2-0.2-0.4-0.2-0.5c0-0.1,0-0.1,0-0.2
	c0-0.3,0.2-0.5,0.4-0.6c0.4-0.3,0.8-0.7,1.3-1.1C67.3,2.4,67.6,2.1,67.9,1.7z M79.2,6.4c0.2,0,0.5,0.1,0.6,0.3
	C80,6.8,80.1,7,80.1,7.3S80,7.7,79.8,7.9c-0.2,0.2-0.4,0.3-0.6,0.3H78c-0.1,0-0.2,0.1-0.2,0.2V14c0,0.5-0.1,1-0.2,1.2
	c-0.1,0.3-0.4,0.5-0.7,0.6c-0.4,0.2-1.1,0.3-2.1,0.3c0,0,0,0,0,0c-0.3,0-0.5-0.1-0.7-0.3c-0.2-0.2-0.4-0.4-0.5-0.7
	c0-0.1,0-0.2,0-0.2c0-0.1,0-0.3,0.1-0.4c0.1-0.2,0.3-0.3,0.6-0.3h0c0.1,0,0.2,0,0.4,0c0.2,0,0.3,0,0.4,0c0.2,0,0.4,0,0.5,0
	c0.3,0,0.4-0.1,0.4-0.3V8.4c0-0.1-0.1-0.2-0.2-0.2h-3.8c-0.2,0-0.5-0.1-0.6-0.3C71.1,7.7,71,7.5,71,7.3s0.1-0.5,0.3-0.6
	c0.2-0.2,0.4-0.3,0.6-0.3H79.2z M78.7,1.8c0.3,0,0.5,0.1,0.7,0.3c0.2,0.2,0.3,0.4,0.3,0.7s-0.1,0.5-0.3,0.7
	c-0.2,0.2-0.4,0.3-0.7,0.3h-6.1c-0.3,0-0.5-0.1-0.7-0.3c-0.2-0.2-0.3-0.4-0.3-0.7s0.1-0.5,0.3-0.7c0.2-0.2,0.4-0.3,0.7-0.3H78.7z"/>
<path class="st40" d="M97.2,4.5c0.2,0.2,0.3,0.4,0.3,0.6s-0.1,0.5-0.3,0.6s-0.4,0.3-0.6,0.3h0c-0.1,0-0.1,0-0.1,0.1
	c-0.4,2.5-1,4.5-1.8,6.1c-0.1,0.1,0,0.2,0,0.3c0.6,0.8,1.3,1.4,2,1.9c0.2,0.1,0.3,0.4,0.4,0.6c0,0.1,0,0.1,0,0.2
	c0,0.2-0.1,0.4-0.2,0.5c-0.2,0.2-0.4,0.4-0.7,0.5c-0.1,0-0.2,0-0.2,0c-0.2,0-0.4-0.1-0.6-0.2c-0.7-0.5-1.3-1.1-1.9-1.8
	c-0.1-0.1-0.1-0.1-0.2,0c-0.7,0.8-1.5,1.4-2.4,1.9c-0.1,0.1-0.3,0.1-0.5,0.1c-0.1,0-0.2,0-0.3,0c-0.3-0.1-0.5-0.3-0.6-0.5
	c-0.1-0.1-0.2-0.3-0.2-0.5c0-0.1,0-0.1,0-0.2c0.1-0.3,0.2-0.4,0.4-0.6c0.9-0.5,1.7-1.2,2.3-2c0.1-0.1,0.1-0.2,0-0.3
	c-0.5-0.9-0.9-2.1-1.2-3.4c0,0,0,0,0,0s0,0,0,0c-0.1,0.2-0.3,0.3-0.5,0.3c0,0,0,0,0,0c-0.2,0-0.4-0.1-0.6-0.2
	c-0.1-0.1-0.2-0.2-0.3-0.2c0,0,0,0,0,0c0,0.1,0,0.1-0.1,0.1h-1.6c-0.1,0-0.2,0.1-0.2,0.2v3c0,0,0,0.1,0,0.1c0,0,0.1,0,0.1,0l1.3-0.3
	c0.1,0,0.1,0,0.2,0c0.2,0,0.3,0.1,0.5,0.2c0.2,0.1,0.3,0.3,0.3,0.6c0,0,0,0.1,0,0.1c0,0.2-0.1,0.4-0.2,0.6c-0.1,0.2-0.3,0.3-0.6,0.4
	c-0.5,0.1-1,0.2-1.5,0.3s-1.1,0.2-1.5,0.3c-0.4,0.1-0.9,0.2-1.5,0.3c-0.6,0.1-1,0.2-1.3,0.3c-0.1,0-0.1,0-0.2,0
	c-0.2,0-0.4-0.1-0.5-0.2c-0.2-0.2-0.4-0.4-0.4-0.6l0-0.2c0-0.1,0-0.1,0-0.1c0-0.2,0-0.3,0.1-0.4c0.1-0.2,0.3-0.3,0.5-0.3
	c0.1,0,0.1,0,0.1-0.1v-6c0-0.2,0.1-0.4,0.3-0.6c0.2-0.2,0.4-0.3,0.6-0.3s0.4,0.1,0.6,0.3c0.2,0.2,0.3,0.4,0.3,0.6v5.6
	c0,0,0,0.1,0,0.1c0,0,0.1,0,0.1,0l0.7-0.1c0.1,0,0.2-0.1,0.2-0.2V4.3c0-0.1-0.1-0.2-0.2-0.2h-2.2c-0.3,0-0.5-0.1-0.7-0.3
	c-0.2-0.2-0.3-0.4-0.3-0.7s0.1-0.5,0.3-0.7s0.4-0.3,0.7-0.3h5.7c0.3,0,0.5,0.1,0.7,0.3c0.2,0.2,0.3,0.4,0.3,0.7s-0.1,0.5-0.3,0.7
	c-0.2,0.2-0.4,0.3-0.7,0.3h-1.2c-0.1,0-0.2,0.1-0.2,0.2v2.5c0,0.1,0.1,0.2,0.2,0.2H89c0.1,0,0.2,0,0.3,0.1c0.1,0.1,0.1,0.2,0.1,0.3
	c0,0,0,0,0,0c0.8-1.3,1.4-3,1.8-5.1c0.1-0.3,0.2-0.5,0.4-0.6c0.2-0.1,0.4-0.2,0.6-0.2c0.1,0,0.1,0,0.2,0c0.3,0,0.5,0.2,0.6,0.4
	c0.1,0.2,0.2,0.3,0.2,0.5c0,0.1,0,0.1,0,0.2c-0.1,0.5-0.2,1-0.4,1.6c0,0,0,0.1,0,0.1c0,0,0.1,0,0.1,0h3.6C96.8,4.3,97,4.3,97.2,4.5z
	 M92.3,6.1c-0.1,0-0.1,0-0.2,0.1c0,0.1,0,0.1,0,0.2c0.3,1.4,0.7,2.7,1.2,3.9c0,0,0,0,0.1,0s0.1,0,0.1,0c0.5-1.1,0.8-2.5,1-4
	c0,0,0-0.1,0-0.1c0,0-0.1,0-0.1,0H92.3z"/>
<path class="st40" d="M103.6,2c0.1,0,0.1,0,0.2,0c0.1,0,0.2,0,0.3,0.1l0.4,0.2c0.2,0.1,0.3,0.3,0.4,0.5c0,0.1,0.1,0.2,0.1,0.3
	c0,0.1,0,0.2,0,0.3c-0.5,1.6-0.9,2.8-1.2,3.6c0,0.1,0,0.2,0,0.3c0.7,1,1.1,2,1.1,3.2c0,1.1-0.2,1.8-0.7,2.1c-0.2,0.2-0.6,0.3-1,0.4
	c-0.1,0-0.1,0-0.2,0c0,0-0.1,0-0.1,0c-0.2,0-0.4-0.1-0.5-0.2c-0.2-0.2-0.3-0.4-0.4-0.6c0-0.1,0-0.1,0-0.2c0-0.1,0-0.3,0.1-0.4
	c0.1-0.2,0.3-0.3,0.5-0.3c0.1,0,0.2-0.1,0.3-0.1c0.2-0.1,0.2-0.4,0.2-0.9c0-0.6-0.1-1.2-0.4-1.7c-0.3-0.7-0.5-1.3-0.5-1.8
	c0-0.2,0-0.5,0.1-0.7c0.1-0.6,0.3-1.2,0.5-2.1c0,0,0-0.1,0-0.1s-0.1,0-0.1,0h-1c-0.1,0-0.2,0.1-0.2,0.2v11.9c0,0.2-0.1,0.4-0.2,0.6
	c-0.2,0.2-0.4,0.2-0.6,0.2s-0.4-0.1-0.6-0.2c-0.2-0.2-0.2-0.4-0.2-0.6V3.4c0-0.4,0.1-0.7,0.4-1s0.6-0.4,1-0.4L103.6,2
	C103.6,2,103.6,2,103.6,2z M112.2,14.7h0.5c0.1,0,0.2-0.1,0.2-0.2c0-0.1,0.1-0.4,0.1-0.8c0-0.2,0.1-0.3,0.3-0.4
	c0.1-0.1,0.2-0.1,0.3-0.1c0.1,0,0.2,0,0.3,0.1c0.2,0.1,0.4,0.3,0.6,0.5c0.1,0.2,0.2,0.4,0.2,0.5c0,0.1,0,0.1,0,0.1
	c-0.1,0.8-0.3,1.3-0.5,1.6c-0.3,0.3-0.6,0.4-1.1,0.4h-1.1c-0.7,0-1.2-0.2-1.4-0.5c-0.2-0.3-0.3-0.9-0.3-1.8v-3.4
	c0-0.1-0.1-0.2-0.2-0.2h-0.9c-0.1,0-0.2,0.1-0.2,0.2c-0.1,0.7-0.1,1.3-0.2,1.8c-0.1,0.5-0.3,1-0.5,1.5c-0.2,0.5-0.6,0.9-1,1.2
	s-0.9,0.7-1.5,0.9c-0.1,0.1-0.3,0.1-0.4,0.1s-0.2,0-0.4-0.1c-0.2-0.1-0.4-0.2-0.6-0.5c-0.1-0.1-0.1-0.2-0.1-0.4c0-0.1,0-0.1,0-0.2
	c0.1-0.2,0.2-0.4,0.4-0.4c0.9-0.4,1.4-0.9,1.8-1.5s0.5-1.4,0.6-2.5c0,0,0-0.1,0-0.1s-0.1,0-0.1,0h-0.8c-0.2,0-0.5-0.1-0.6-0.2
	c-0.2-0.2-0.3-0.4-0.3-0.6s0.1-0.4,0.3-0.6c0.2-0.2,0.4-0.3,0.6-0.3h7.4c0.2,0,0.4,0.1,0.6,0.3c0.2,0.2,0.3,0.4,0.3,0.6
	s-0.1,0.4-0.3,0.6c-0.2,0.2-0.4,0.2-0.6,0.2h-1.4c-0.1,0-0.2,0.1-0.2,0.2v3.4c0,0.2,0,0.4,0,0.4C112,14.7,112.1,14.7,112.2,14.7z
	 M105,4.4c0-0.4,0.1-0.7,0.4-1c0.3-0.3,0.6-0.4,1-0.4h2.1c0.1,0,0.2-0.1,0.2-0.2V2.3c0-0.3,0.1-0.5,0.3-0.7s0.4-0.3,0.7-0.3
	c0.3,0,0.5,0.1,0.7,0.3c0.2,0.2,0.3,0.4,0.3,0.7v0.6c0,0.1,0.1,0.2,0.2,0.2h2.4c0.4,0,0.7,0.1,1,0.4c0.3,0.3,0.4,0.6,0.4,1v0.7
	c0,0.3-0.1,0.6-0.3,0.8c-0.2,0.2-0.5,0.3-0.8,0.3c-0.1,0-0.1,0-0.1,0.1v0c0,0.4-0.1,0.7-0.4,0.9c-0.3,0.3-0.6,0.4-0.9,0.4h-4.4
	c-0.4,0-0.7-0.1-0.9-0.4s-0.4-0.6-0.4-0.9v0c0-0.1,0-0.1-0.1-0.1c-0.3,0-0.6-0.1-0.8-0.3S105,5.5,105,5.2V4.4z M112.5,6.1
	c0.1,0,0.2-0.1,0.2-0.2v-1c0-0.1-0.1-0.2-0.2-0.2h-5.6c-0.1,0-0.2,0.1-0.2,0.2v1c0,0.1,0.1,0.2,0.2,0.2H112.5z"/>
<path class="st40" d="M121.2,11.4c0.1,0,0.1,0,0.2,0c0.1,0,0.3,0,0.4,0.1c0.2,0.1,0.3,0.3,0.3,0.5c0,0.1,0,0.1,0,0.1
	c0,0.2-0.1,0.4-0.2,0.5c-0.1,0.2-0.3,0.3-0.6,0.4c-1.3,0.4-2.5,0.7-3.7,1c-0.1,0-0.1,0-0.2,0c-0.2,0-0.3,0-0.5-0.1
	c-0.2-0.1-0.4-0.3-0.4-0.6c0-0.1,0-0.1,0-0.2c0-0.2,0-0.3,0.1-0.5c0.1-0.2,0.3-0.4,0.6-0.4c0.3-0.1,0.7-0.2,1-0.2
	c0.1,0,0.2-0.1,0.2-0.2V9c0-0.1-0.1-0.2-0.2-0.2h-0.7c-0.2,0-0.4-0.1-0.6-0.3c-0.2-0.2-0.3-0.4-0.3-0.6s0.1-0.4,0.3-0.6
	s0.4-0.3,0.6-0.3h0.7c0.1,0,0.2-0.1,0.2-0.2V4.3c0-0.1-0.1-0.2-0.2-0.2h-0.8c-0.2,0-0.4-0.1-0.6-0.2c-0.2-0.2-0.2-0.4-0.2-0.6
	c0-0.2,0.1-0.4,0.2-0.6c0.2-0.2,0.4-0.3,0.6-0.3h3.5c0.2,0,0.4,0.1,0.6,0.3c0.2,0.2,0.3,0.4,0.3,0.6c0,0.2-0.1,0.4-0.3,0.6
	c-0.2,0.2-0.4,0.2-0.6,0.2h-0.7c-0.1,0-0.2,0.1-0.2,0.2V7c0,0.1,0.1,0.1,0.2,0.1h0.5c0.2,0,0.4,0.1,0.6,0.3c0.2,0.2,0.2,0.4,0.2,0.6
	s-0.1,0.4-0.2,0.6c-0.2,0.2-0.4,0.3-0.6,0.3h-0.5c-0.1,0-0.2,0-0.2,0.1v2.5c0,0,0,0.1,0,0.1c0,0,0.1,0,0.1,0L121.2,11.4z M130.4,12
	C130.4,12,130.4,12,130.4,12C130.4,12,130.4,12,130.4,12l0.1,0.1c0.3,0.2,0.4,0.5,0.4,0.8c0,0.3-0.1,0.6-0.4,0.8
	c-0.2,0.1-0.3,0.2-0.5,0.3c0,0,0,0.1,0,0.1c0,0,0,0.1,0,0.1c0.3,0.2,0.6,0.4,1,0.5c0.2,0.1,0.3,0.3,0.4,0.5c0,0.1,0,0.1,0,0.2
	c0,0.1-0.1,0.3-0.2,0.4c-0.2,0.2-0.4,0.4-0.7,0.4c-0.1,0-0.2,0-0.3,0c-0.2,0-0.3,0-0.5-0.1c-1.2-0.7-2.2-1.7-3-3c0,0,0,0,0,0
	c0,0,0,0,0,0v2.5c0,0.2-0.1,0.5-0.3,0.6s-0.4,0.3-0.6,0.3s-0.5-0.1-0.6-0.3c-0.2-0.2-0.3-0.4-0.3-0.6v-1.3c0,0,0-0.1,0-0.1
	c0,0-0.1,0-0.1,0c-0.7,0.4-1.4,0.8-2.1,1.2c-0.1,0.1-0.3,0.1-0.4,0.1c-0.1,0-0.2,0-0.3,0c-0.2-0.1-0.5-0.2-0.6-0.4
	c-0.1-0.1-0.1-0.2-0.1-0.4c0-0.1,0-0.1,0-0.2c0.1-0.2,0.2-0.3,0.4-0.4c1.4-0.5,2.7-1.2,3.8-2c0,0,0,0,0-0.1c0,0,0,0,0,0h-1.1
	c-0.4,0-0.7-0.1-1-0.4s-0.4-0.6-0.4-1v-1c0-0.4,0.1-0.7,0.4-1s0.6-0.4,1-0.4h5.4c0.4,0,0.7,0.1,1,0.4s0.4,0.6,0.4,1v1.9
	c0,0.1-0.1,0.3-0.2,0.4C130.7,11.9,130.6,12,130.4,12z M122.5,7.6c-0.2,0-0.4-0.1-0.6-0.2s-0.2-0.3-0.2-0.5s0.1-0.4,0.2-0.5
	c0.2-0.1,0.3-0.2,0.6-0.2h8.5c0.2,0,0.4,0.1,0.5,0.2c0.1,0.1,0.2,0.3,0.2,0.5s-0.1,0.4-0.2,0.5c-0.1,0.1-0.3,0.2-0.5,0.2H122.5z
	 M129.8,1.8c0.4,0,0.7,0.1,1,0.4s0.4,0.6,0.4,1v0.9c0,0.4-0.1,0.7-0.4,1c-0.3,0.3-0.6,0.4-1,0.4h-6c-0.4,0-0.7-0.1-1-0.4
	c-0.3-0.3-0.4-0.6-0.4-1V3.2c0-0.4,0.1-0.7,0.4-1s0.6-0.4,1-0.4H129.8z M124.9,4.2c0.1,0,0.2-0.1,0.2-0.2V3.2c0-0.1-0.1-0.2-0.2-0.2
	h-0.7c-0.1,0-0.2,0.1-0.2,0.2V4c0,0.1,0.1,0.2,0.2,0.2H124.9z M124.6,9.5c-0.1,0-0.2,0.1-0.2,0.2v0.7c0,0.1,0.1,0.2,0.2,0.2h4.4
	c0.1,0,0.2-0.1,0.2-0.2V9.7c0-0.1-0.1-0.2-0.2-0.2H124.6z M127.2,4.2c0.1,0,0.2-0.1,0.2-0.2V3.2c0-0.1-0.1-0.2-0.2-0.2h-0.7
	c-0.1,0-0.2,0.1-0.2,0.2V4c0,0.1,0.1,0.2,0.2,0.2H127.2z M130.1,12.1C130.1,12.1,130.1,12,130.1,12.1c0-0.1,0-0.1,0-0.1H128
	c0,0-0.1,0-0.1,0s0,0.1,0,0.1c0.2,0.3,0.5,0.6,0.8,0.9c0.1,0.1,0.2,0.1,0.2,0C129.3,12.8,129.7,12.5,130.1,12.1z M129.5,4.2
	c0.1,0,0.2-0.1,0.2-0.2V3.2c0-0.1-0.1-0.2-0.2-0.2h-0.8c-0.1,0-0.2,0.1-0.2,0.2V4c0,0.1,0.1,0.2,0.2,0.2H129.5z"/>
<path class="st40" d="M137.1,2.2c0.1-0.2,0.3-0.4,0.5-0.5c0.1-0.1,0.3-0.1,0.4-0.1c0.1,0,0.2,0,0.3,0c0.2,0.1,0.4,0.2,0.5,0.5
	c0.1,0.1,0.1,0.3,0.1,0.4s0,0.2-0.1,0.3c-0.4,0.8-0.7,1.5-1.1,2.2c0,0.1-0.1,0.2-0.1,0.3v10.3c0,0.3-0.1,0.5-0.3,0.7
	c-0.2,0.2-0.4,0.3-0.7,0.3c-0.3,0-0.5-0.1-0.7-0.3c-0.2-0.2-0.3-0.4-0.3-0.7V8.1c0,0,0,0,0,0c0,0,0,0-0.1,0
	c-0.1,0.2-0.3,0.3-0.4,0.5c-0.1,0.2-0.3,0.3-0.5,0.3c0,0-0.1,0-0.1,0c-0.3,0-0.4-0.2-0.6-0.4C134,8.2,134,7.9,134,7.7
	c0-0.1,0-0.1,0-0.2c0-0.3,0.2-0.6,0.4-0.9C135.5,5.3,136.4,3.8,137.1,2.2z M148.7,9.4c0.2,0.2,0.3,0.4,0.3,0.6
	c0,0.2-0.1,0.4-0.3,0.6c-0.2,0.2-0.4,0.3-0.6,0.3h-2.2c0,0-0.1,0-0.1,0c0,0,0,0.1,0,0.1c0.8,1.1,1.7,2.1,2.8,2.9
	c0.2,0.2,0.3,0.4,0.4,0.6c0,0,0,0.1,0,0.1c0,0.2-0.1,0.4-0.2,0.6c-0.2,0.2-0.4,0.3-0.7,0.4c0,0-0.1,0-0.1,0c-0.2,0-0.4-0.1-0.6-0.2
	c-0.9-0.8-1.7-1.7-2.4-2.9c0,0,0,0,0,0c0,0,0,0,0,0v3.1c0,0.3-0.1,0.5-0.3,0.7c-0.2,0.2-0.4,0.3-0.7,0.3s-0.5-0.1-0.7-0.3
	c-0.2-0.2-0.3-0.4-0.3-0.7v-3c0,0,0,0,0,0c0,0,0,0-0.1,0c-0.8,1.1-1.6,2-2.6,2.8c-0.2,0.1-0.4,0.2-0.6,0.2c-0.1,0-0.1,0-0.2,0
	c-0.3,0-0.5-0.2-0.7-0.4c-0.1-0.2-0.2-0.3-0.2-0.6c0,0,0-0.1,0-0.1c0-0.3,0.2-0.5,0.4-0.6c1.2-0.8,2.1-1.7,3-2.9c0,0,0-0.1,0-0.1
	s0,0-0.1,0h-2.3c-0.2,0-0.5-0.1-0.6-0.3c-0.2-0.2-0.3-0.4-0.3-0.6c0-0.2,0.1-0.4,0.3-0.6c0.2-0.2,0.4-0.3,0.6-0.3h3.3
	c0.1,0,0.2-0.1,0.2-0.2V7.8c0-0.1-0.1-0.2-0.2-0.2H141c-0.4,0-0.7-0.1-1-0.4c-0.3-0.3-0.4-0.6-0.4-1V3.4c0-0.4,0.1-0.7,0.4-1
	c0.3-0.3,0.6-0.4,1-0.4h5.8c0.4,0,0.7,0.1,1,0.4s0.4,0.6,0.4,1v2.8c0,0.4-0.1,0.7-0.4,1c-0.3,0.3-0.6,0.4-1,0.4h-1.9
	c-0.1,0-0.2,0.1-0.2,0.2v1.2c0,0.1,0.1,0.2,0.2,0.2h3.2C148.4,9.1,148.6,9.2,148.7,9.4z M141.6,3.7c-0.1,0-0.2,0.1-0.2,0.2v1.9
	c0,0.1,0.1,0.2,0.2,0.2h4.5c0.1,0,0.2-0.1,0.2-0.2V3.9c0-0.1-0.1-0.2-0.2-0.2H141.6z"/>
<path class="st40" d="M165.8,8.8c0.1,0.1,0.2,0.3,0.2,0.5c0,0.2-0.1,0.4-0.2,0.5s-0.3,0.2-0.5,0.2h-3.9c-0.1,0-0.2,0-0.3,0.1
	c-0.4,0.2-0.8,0.4-1.1,0.6c0,0,0,0,0,0c0,0,0,0,0,0h3.3c0.4,0,0.7,0.1,1,0.4c0.3,0.3,0.4,0.6,0.4,1v3.4c0,0.3-0.1,0.5-0.3,0.7
	c-0.2,0.2-0.4,0.3-0.7,0.3H163c-0.1,0-0.2,0-0.2-0.1c-0.1-0.1-0.1-0.1-0.1-0.2c0,0,0,0,0,0h-6.2c0,0,0,0,0,0c0,0.1,0,0.2-0.1,0.2
	c-0.1,0.1-0.2,0.1-0.2,0.1h-0.6c-0.2,0-0.5-0.1-0.6-0.3c-0.2-0.2-0.3-0.4-0.3-0.6v-2.7c0,0,0-0.1,0-0.1c0,0-0.1,0-0.1,0
	c-0.5,0.2-1.1,0.3-1.7,0.5c-0.1,0-0.2,0-0.3,0c-0.2,0-0.3,0-0.5-0.1c-0.3-0.1-0.4-0.3-0.6-0.6c-0.1-0.1-0.1-0.2-0.1-0.3
	c0-0.1,0-0.2,0.1-0.3c0.1-0.2,0.2-0.3,0.5-0.4c1.8-0.4,3.6-0.9,5.3-1.6c0,0,0,0,0,0s0,0,0,0h-5c-0.2,0-0.4-0.1-0.5-0.2
	c-0.1-0.1-0.2-0.3-0.2-0.5c0-0.2,0.1-0.4,0.2-0.5c0.1-0.1,0.3-0.2,0.5-0.2h4.9c0.1,0,0.2-0.1,0.2-0.2V7.9c0-0.1-0.1-0.2-0.2-0.2
	h-3.2c-0.2,0-0.4-0.1-0.5-0.2c-0.1-0.1-0.2-0.3-0.2-0.5c0-0.2,0.1-0.4,0.2-0.5s0.3-0.2,0.5-0.2h3.2c0.1,0,0.2-0.1,0.2-0.2V5.7
	c0-0.1-0.1-0.2-0.2-0.2h-3.4c-0.4,0-0.7-0.1-1-0.4c-0.3-0.3-0.4-0.6-0.4-1V3.2c0-0.4,0.1-0.7,0.4-1s0.6-0.4,1-0.4h10.2
	c0.4,0,0.7,0.1,1,0.4c0.3,0.3,0.4,0.6,0.4,1v0.9c0,0.4-0.1,0.7-0.4,1c-0.3,0.3-0.6,0.4-1,0.4h-4.5c-0.1,0-0.2,0.1-0.2,0.2v0.4
	c0,0.1,0.1,0.2,0.2,0.2h2.3c0.2,0,0.5,0.1,0.6,0.3c0.2,0.2,0.3,0.4,0.3,0.6c0,0,0,0,0,0c0,0,0,0,0.1,0c0.3-0.2,0.6-0.5,0.8-0.7
	c0.2-0.2,0.4-0.3,0.7-0.3c0.1,0,0.1,0,0.2,0c0.2,0,0.4,0.1,0.6,0.2c0.2,0.1,0.3,0.3,0.3,0.5c0,0,0,0.1,0,0.1c0,0.2-0.1,0.3-0.2,0.5
	c-0.4,0.4-0.8,0.7-1.3,1c0,0,0,0,0,0.1s0,0,0,0h1.5C165.5,8.5,165.6,8.6,165.8,8.8z M155.8,4.2c0.1,0,0.2-0.1,0.2-0.2V3.3
	c0-0.1-0.1-0.2-0.2-0.2h-1.5c-0.1,0-0.2,0.1-0.2,0.2V4c0,0.1,0.1,0.2,0.2,0.2H155.8z M162.7,12.3c0-0.1-0.1-0.2-0.2-0.2h-6
	c0,0,0,0,0,0c0,0,0,0,0,0v0.5c0,0.1,0.1,0.2,0.2,0.2h5.9c0.1,0,0.2-0.1,0.2-0.2V12.3z M156.5,14.6c0,0.1,0.1,0.2,0.2,0.2h5.9
	c0.1,0,0.2-0.1,0.2-0.2v-0.4c0-0.1-0.1-0.2-0.2-0.2h-5.9c-0.1,0-0.2,0.1-0.2,0.2V14.6z M157.9,3.1c-0.1,0-0.2,0.1-0.2,0.2V4
	c0,0.1,0.1,0.2,0.2,0.2h1.5c0.1,0,0.2-0.1,0.2-0.2V3.3c0-0.1-0.1-0.2-0.2-0.2H157.9z M159.3,7.7c-0.1,0-0.2,0.1-0.2,0.2v0.5
	c0,0.1,0.1,0.2,0.2,0.2h1.1c0.1,0,0.2,0,0.3-0.1c0.4-0.3,0.8-0.5,1-0.6c0,0,0,0,0-0.1c0,0,0,0,0,0H159.3z M161.5,3.1
	c-0.1,0-0.2,0.1-0.2,0.2V4c0,0.1,0.1,0.2,0.2,0.2h1.6c0.1,0,0.2-0.1,0.2-0.2V3.3c0-0.1-0.1-0.2-0.2-0.2H161.5z"/>
<path class="st41" d="M71.2,33c0.1,0,0.2,0,0.3,0c0.2,0,0.4,0.1,0.5,0.2c0.3,0.2,0.4,0.4,0.4,0.7c0,0.1,0,0.1,0,0.2
	c0,0.3-0.1,0.5-0.2,0.7c-0.2,0.3-0.4,0.4-0.7,0.5c-1.7,0.5-3.3,0.9-4.8,1.3c-0.1,0-0.2,0-0.3,0c-0.2,0-0.4-0.1-0.6-0.2
	c-0.3-0.2-0.5-0.4-0.5-0.7c0-0.1,0-0.2,0-0.3c0-0.2,0.1-0.4,0.2-0.6c0.2-0.3,0.4-0.5,0.8-0.5c0.4-0.1,0.9-0.2,1.3-0.3
	c0.1,0,0.2-0.1,0.2-0.3v-3.8c0-0.1-0.1-0.2-0.2-0.2h-0.9c-0.3,0-0.6-0.1-0.8-0.3s-0.3-0.5-0.3-0.8s0.1-0.6,0.3-0.8s0.5-0.3,0.8-0.3
	h0.9c0.1,0,0.2-0.1,0.2-0.2v-3.5c0-0.1-0.1-0.2-0.2-0.2h-1.1c-0.3,0-0.6-0.1-0.8-0.3c-0.2-0.2-0.3-0.5-0.3-0.8
	c0-0.3,0.1-0.6,0.3-0.8c0.2-0.2,0.5-0.3,0.8-0.3H71c0.3,0,0.6,0.1,0.8,0.3s0.3,0.5,0.3,0.8c0,0.3-0.1,0.6-0.3,0.8s-0.5,0.3-0.8,0.3
	h-0.9c-0.1,0-0.2,0.1-0.2,0.2v3.5c0,0.1,0.1,0.2,0.2,0.2h0.6c0.3,0,0.6,0.1,0.8,0.3c0.2,0.2,0.3,0.5,0.3,0.8s-0.1,0.6-0.3,0.8
	c-0.2,0.2-0.5,0.3-0.8,0.3h-0.6c-0.1,0-0.2,0.1-0.2,0.2v3.2c0,0.1,0,0.1,0.1,0.1s0.1,0,0.1,0L71.2,33z M83.2,33.7
	C83.2,33.7,83.2,33.7,83.2,33.7C83.2,33.8,83.2,33.8,83.2,33.7l0.1,0.1c0.4,0.3,0.5,0.6,0.5,1.1c0,0.5-0.2,0.8-0.6,1.1
	c-0.2,0.1-0.4,0.3-0.6,0.4c0,0-0.1,0.1-0.1,0.1c0,0,0,0.1,0.1,0.1c0.4,0.3,0.8,0.5,1.3,0.7c0.3,0.1,0.4,0.3,0.5,0.6
	c0,0.1,0,0.2,0,0.2c0,0.2-0.1,0.4-0.2,0.6c-0.2,0.3-0.5,0.5-0.9,0.6c-0.1,0-0.3,0.1-0.4,0.1c-0.2,0-0.4-0.1-0.6-0.2
	c-1.6-0.9-2.9-2.2-3.9-3.9c0,0,0,0-0.1,0c0,0,0,0,0,0.1v3.2c0,0.3-0.1,0.6-0.4,0.8s-0.5,0.4-0.8,0.4c-0.3,0-0.6-0.1-0.8-0.4
	c-0.2-0.2-0.4-0.5-0.4-0.8v-1.7c0-0.1,0-0.1-0.1-0.1s-0.1,0-0.1,0c-0.9,0.6-1.8,1.1-2.7,1.5c-0.2,0.1-0.4,0.1-0.6,0.1
	c-0.1,0-0.3,0-0.4,0c-0.3-0.1-0.6-0.3-0.8-0.6c-0.1-0.2-0.2-0.3-0.2-0.5c0-0.1,0-0.1,0-0.2c0.1-0.3,0.2-0.4,0.5-0.5
	c1.8-0.7,3.5-1.6,4.9-2.7c0,0,0,0,0-0.1c0,0,0-0.1-0.1-0.1H75c-0.5,0-0.9-0.2-1.3-0.5s-0.5-0.8-0.5-1.3v-1.4c0-0.5,0.2-0.9,0.5-1.3
	c0.4-0.4,0.8-0.5,1.3-0.5h7.1c0.5,0,0.9,0.2,1.3,0.5c0.4,0.4,0.5,0.8,0.5,1.3V33c0,0.2-0.1,0.4-0.2,0.5
	C83.6,33.7,83.4,33.7,83.2,33.7z M72.9,28c-0.3,0-0.5-0.1-0.7-0.3c-0.2-0.2-0.3-0.4-0.3-0.7c0-0.3,0.1-0.5,0.3-0.7s0.4-0.3,0.7-0.3
	h11.1c0.3,0,0.5,0.1,0.7,0.3c0.2,0.2,0.3,0.4,0.3,0.7c0,0.3-0.1,0.5-0.3,0.7c-0.2,0.2-0.4,0.3-0.7,0.3H72.9z M82.5,20.4
	c0.5,0,0.9,0.2,1.3,0.5c0.4,0.4,0.5,0.8,0.5,1.3v1.2c0,0.5-0.2,0.9-0.5,1.3c-0.4,0.4-0.8,0.5-1.3,0.5h-7.8c-0.5,0-0.9-0.2-1.3-0.5
	c-0.4-0.4-0.5-0.8-0.5-1.3v-1.2c0-0.5,0.2-0.9,0.5-1.3c0.4-0.4,0.8-0.5,1.3-0.5H82.5z M76,23.6c0.1,0,0.2-0.1,0.2-0.2v-1
	c0-0.1-0.1-0.2-0.2-0.2h-0.9c-0.1,0-0.2,0.1-0.2,0.2v1c0,0.1,0.1,0.2,0.2,0.2H76z M75.6,30.6c-0.1,0-0.2,0.1-0.2,0.2v1
	c0,0.1,0.1,0.2,0.2,0.2h5.7c0.1,0,0.2-0.1,0.2-0.2v-1c0-0.1-0.1-0.2-0.2-0.2H75.6z M79,23.6c0.1,0,0.2-0.1,0.2-0.2v-1
	c0-0.1-0.1-0.2-0.2-0.2H78c-0.1,0-0.2,0.1-0.2,0.2v1c0,0.1,0.1,0.2,0.2,0.2H79z M82.8,33.9C82.8,33.8,82.8,33.8,82.8,33.9
	c0-0.1,0-0.1-0.1-0.1H80c0,0-0.1,0-0.1,0.1s0,0.1,0,0.1c0.3,0.4,0.6,0.8,1,1.2c0.1,0.1,0.2,0.1,0.3,0C81.8,34.8,82.3,34.3,82.8,33.9
	z M82,23.6c0.1,0,0.2-0.1,0.2-0.2v-1c0-0.1-0.1-0.2-0.2-0.2h-1c-0.1,0-0.2,0.1-0.2,0.2v1c0,0.1,0.1,0.2,0.2,0.2H82z"/>
<path class="st41" d="M91.9,21c0.1-0.3,0.4-0.6,0.7-0.7c0.2-0.1,0.4-0.1,0.5-0.1c0.1,0,0.3,0,0.4,0.1c0.3,0.1,0.5,0.3,0.7,0.6
	c0.1,0.2,0.1,0.3,0.1,0.5s0,0.3-0.1,0.4c-0.5,1-0.9,2-1.4,2.9c-0.1,0.1-0.1,0.2-0.1,0.4v13.5c0,0.3-0.1,0.6-0.4,0.9
	c-0.2,0.2-0.5,0.4-0.9,0.4c-0.3,0-0.6-0.1-0.9-0.4c-0.2-0.2-0.4-0.5-0.4-0.9v-9.8c0,0,0,0-0.1-0.1c0,0-0.1,0-0.1,0
	c-0.2,0.2-0.4,0.5-0.5,0.6c-0.2,0.2-0.4,0.3-0.7,0.3c-0.1,0-0.1,0-0.2,0c-0.3-0.1-0.6-0.2-0.8-0.5c-0.2-0.3-0.3-0.6-0.3-1
	c0-0.1,0-0.2,0-0.3c0.1-0.4,0.2-0.8,0.5-1.1C89.8,25.1,91,23.1,91.9,21z M107.1,30.3c0.2,0.2,0.3,0.5,0.3,0.8s-0.1,0.6-0.3,0.8
	s-0.5,0.3-0.8,0.3h-2.9c0,0-0.1,0-0.1,0.1c0,0,0,0.1,0,0.1c1,1.4,2.2,2.7,3.7,3.7c0.3,0.2,0.4,0.5,0.5,0.8c0,0,0,0.1,0,0.1
	c0,0.3-0.1,0.5-0.3,0.8c-0.3,0.3-0.6,0.4-0.9,0.5c-0.1,0-0.1,0-0.2,0c-0.3,0-0.6-0.1-0.8-0.3c-1.2-1-2.2-2.3-3.2-3.7c0,0,0,0-0.1,0
	c0,0,0,0,0,0.1v4c0,0.3-0.1,0.6-0.4,0.9c-0.3,0.3-0.6,0.4-0.9,0.4c-0.4,0-0.7-0.1-0.9-0.4c-0.3-0.3-0.4-0.5-0.4-0.9v-3.9
	c0,0,0,0,0-0.1c0,0-0.1,0-0.1,0c-1,1.4-2.1,2.6-3.4,3.7c-0.2,0.2-0.5,0.3-0.8,0.3c-0.1,0-0.2,0-0.2,0c-0.4-0.1-0.7-0.2-0.9-0.5
	c-0.2-0.2-0.3-0.5-0.3-0.7c0,0,0-0.1,0-0.1c0-0.3,0.2-0.6,0.5-0.8c1.5-1,2.8-2.3,3.9-3.8c0,0,0-0.1,0-0.1c0,0-0.1-0.1-0.1-0.1h-3
	c-0.3,0-0.6-0.1-0.8-0.3s-0.3-0.5-0.3-0.8s0.1-0.6,0.3-0.8c0.2-0.2,0.5-0.3,0.8-0.3h4.2c0.1,0,0.2-0.1,0.2-0.2v-1.5
	c0-0.1-0.1-0.2-0.2-0.2H97c-0.5,0-0.9-0.2-1.3-0.5c-0.4-0.4-0.5-0.8-0.5-1.3v-3.7c0-0.5,0.2-0.9,0.5-1.3c0.4-0.4,0.8-0.5,1.3-0.5
	h7.6c0.5,0,0.9,0.2,1.3,0.5c0.4,0.4,0.5,0.8,0.5,1.3v3.7c0,0.5-0.2,0.9-0.5,1.3c-0.4,0.4-0.8,0.5-1.3,0.5h-2.4
	c-0.1,0-0.2,0.1-0.2,0.2v1.5c0,0.1,0.1,0.2,0.2,0.2h4.2C106.6,30,106.9,30.1,107.1,30.3z M97.8,22.9c-0.1,0-0.2,0.1-0.2,0.2v2.4
	c0,0.1,0.1,0.2,0.2,0.2h5.8c0.1,0,0.2-0.1,0.2-0.2v-2.4c0-0.1-0.1-0.2-0.2-0.2H97.8z"/>
<path class="st41" d="M128.7,26.7c0.3,0,0.5,0.1,0.7,0.3c0.2,0.2,0.3,0.4,0.3,0.7c0,0.3-0.1,0.5-0.3,0.7c-0.2,0.2-0.4,0.3-0.7,0.3
	h-14.3c-0.1,0-0.2,0.1-0.2,0.2v1.3c0,3.6-0.6,6.5-1.7,8.6c-0.2,0.3-0.4,0.5-0.7,0.5c0,0-0.1,0-0.1,0c-0.3,0-0.5-0.1-0.7-0.3
	c-0.3-0.2-0.5-0.5-0.5-0.9c0-0.1,0-0.2,0-0.3c0-0.2,0.1-0.5,0.2-0.7c0.8-1.7,1.2-4,1.2-7.1v-1.8c0-0.5,0.2-0.9,0.5-1.3
	c0.4-0.4,0.8-0.5,1.3-0.5h0.7c0,0,0.1,0,0.1,0c0,0,0,0,0-0.1c-0.1-0.1-0.1-0.3-0.1-0.4c0-0.1,0-0.2,0.1-0.3c0.1-0.2,0.3-0.4,0.5-0.4
	c0.9-0.2,1.9-0.3,2.8-0.5c0,0,0,0,0-0.1c0,0,0,0,0,0c-0.7-0.2-1.3-0.3-1.9-0.5c-0.2-0.1-0.4-0.2-0.4-0.4c0-0.2,0-0.4,0.2-0.6
	c0,0,0,0,0-0.1c0,0,0,0,0,0h-2.9c-0.3,0-0.5-0.1-0.7-0.3c-0.2-0.2-0.3-0.4-0.3-0.7c0-0.3,0.1-0.5,0.3-0.7c0.2-0.2,0.4-0.3,0.7-0.3h6
	c0.1,0,0.2,0,0.2-0.1c0-0.4,0.1-0.7,0.4-0.9s0.5-0.4,0.9-0.4c0.4,0,0.7,0.1,0.9,0.4s0.4,0.5,0.4,0.9c0,0.1,0,0.1,0.1,0.1h6.3
	c0.3,0,0.5,0.1,0.7,0.3c0.2,0.2,0.3,0.4,0.3,0.7c0,0.3-0.1,0.5-0.3,0.7c-0.2,0.2-0.4,0.3-0.7,0.3h-2.4c0,0,0,0,0,0
	c0.1,0.1,0.1,0.1,0.1,0.2c0,0.1,0,0.2-0.1,0.2c-0.6,0.3-1.2,0.6-1.9,0.9c0,0-0.1,0-0.1,0.1c0,0,0,0.1,0.1,0.1
	c0.6,0.2,1.2,0.4,1.8,0.6c0.3,0.1,0.4,0.3,0.5,0.5c0,0,0,0.1,0,0.1c0,0.2-0.1,0.4-0.3,0.5c0,0,0,0,0,0.1c0,0,0,0,0,0H128.7z
	 M120.9,32.6c0-0.1-0.1-0.2-0.2-0.2h-3.1c-0.1,0-0.2,0.1-0.3,0.2c-0.1,0.2-0.3,0.4-0.4,0.6c-0.2,0.3-0.5,0.4-0.8,0.4
	c0,0-0.1,0-0.1,0c-0.3,0-0.5-0.1-0.8-0.3c-0.2-0.2-0.4-0.4-0.4-0.7c0,0,0-0.1,0-0.1c0-0.2,0.1-0.5,0.3-0.6c0.5-0.6,0.9-1.3,1.3-2
	c0.1-0.3,0.4-0.5,0.6-0.7c0.2-0.1,0.4-0.1,0.6-0.1c0.1,0,0.2,0,0.3,0h0.1c0.3,0.1,0.5,0.2,0.6,0.5c0.1,0.1,0.1,0.3,0.1,0.4
	c0,0.1,0,0.2-0.1,0.4c0,0.1,0,0.1,0.1,0.1h2.1c0.1,0,0.1,0,0.1-0.1v0c0-0.3,0.1-0.6,0.4-0.9s0.5-0.4,0.9-0.4s0.6,0.1,0.9,0.4
	s0.4,0.5,0.4,0.9v0c0,0.1,0,0.1,0.1,0.1h4c0.3,0,0.5,0.1,0.7,0.3c0.2,0.2,0.3,0.4,0.3,0.7c0,0.3-0.1,0.5-0.3,0.7
	c-0.2,0.2-0.4,0.3-0.7,0.3h-4c-0.1,0-0.2,0.1-0.2,0.2v0.9c0,0.1,0.1,0.2,0.2,0.2h3.4c0.3,0,0.5,0.1,0.7,0.3c0.2,0.2,0.3,0.4,0.3,0.7
	s-0.1,0.5-0.3,0.7c-0.2,0.2-0.4,0.3-0.7,0.3h-3.4c-0.1,0-0.2,0.1-0.2,0.2v1.2c0,0.1,0.1,0.2,0.2,0.2h5c0.3,0,0.5,0.1,0.7,0.3
	c0.2,0.2,0.3,0.4,0.3,0.7c0,0.3-0.1,0.5-0.3,0.7c-0.2,0.2-0.4,0.3-0.7,0.3h-13c-0.3,0-0.5-0.1-0.7-0.3s-0.3-0.4-0.3-0.7
	c0-0.3,0.1-0.5,0.3-0.7s0.4-0.3,0.7-0.3h5.1c0.1,0,0.2-0.1,0.2-0.2v-1.2c0-0.1-0.1-0.2-0.2-0.2h-3.3c-0.3,0-0.5-0.1-0.7-0.3
	c-0.2-0.2-0.3-0.4-0.3-0.7s0.1-0.5,0.3-0.7c0.2-0.2,0.4-0.3,0.7-0.3h3.3c0.1,0,0.2-0.1,0.2-0.2V32.6z M117.1,26.6
	C117.1,26.6,117.1,26.6,117.1,26.6C117.1,26.7,117.1,26.7,117.1,26.6l6.5,0c0,0,0,0,0,0c0,0,0,0,0,0c-0.9-0.3-1.8-0.6-2.7-0.9
	c-0.1,0-0.3,0-0.4,0C119.4,26.1,118.3,26.4,117.1,26.6z M122.6,23.3C122.6,23.3,122.7,23.3,122.6,23.3
	C122.6,23.2,122.6,23.2,122.6,23.3l-4.8-0.1c0,0,0,0,0,0s0,0,0,0c0.7,0.2,1.6,0.4,2.7,0.7c0.1,0,0.3,0,0.4,0
	C121.5,23.8,122.1,23.6,122.6,23.3z"/>
<path class="st41" d="M134.5,39.7c-0.3,0-0.6-0.1-0.9-0.4c-0.2-0.2-0.4-0.5-0.4-0.9v-6.6c0-0.5,0.2-0.9,0.5-1.3
	c0.4-0.4,0.8-0.5,1.3-0.5h4.5c0.5,0,0.9,0.2,1.3,0.5c0.4,0.4,0.5,0.8,0.5,1.3v6.4c0,0.3-0.1,0.6-0.4,0.9c-0.3,0.3-0.5,0.4-0.9,0.4
	h-0.4c-0.2,0-0.4-0.1-0.6-0.3c-0.2-0.2-0.3-0.4-0.3-0.6c0-0.1,0-0.1-0.1-0.1h-3c-0.1,0-0.1,0-0.1,0.1c0,0.3-0.1,0.5-0.3,0.7
	c-0.2,0.2-0.4,0.3-0.7,0.3H134.5z M138.9,32.8c0-0.1-0.1-0.2-0.2-0.2h-2.8c-0.1,0-0.2,0.1-0.2,0.2V36c0,0.1,0.1,0.2,0.2,0.2h2.8
	c0.1,0,0.2-0.1,0.2-0.2V32.8z M146.9,20.6c0.5,0,0.9,0.2,1.3,0.5c0.4,0.4,0.5,0.8,0.5,1.3v4.1c0,0.5-0.2,0.9-0.5,1.3
	s-0.8,0.5-1.3,0.5h-8.9c-0.5,0-0.9-0.2-1.3-0.5c-0.4-0.4-0.5-0.8-0.5-1.3v-4.1c0-0.5,0.2-0.9,0.5-1.3c0.4-0.4,0.8-0.5,1.3-0.5H146.9
	z M146,25.9c0.1,0,0.2-0.1,0.2-0.2v-2.5c0-0.1-0.1-0.2-0.2-0.2h-7.1c-0.1,0-0.2,0.1-0.2,0.2v2.5c0,0.1,0.1,0.2,0.2,0.2H146z
	 M143.3,31.9c0-0.5,0.2-0.9,0.5-1.3c0.4-0.4,0.8-0.5,1.3-0.5h4.8c0.5,0,0.9,0.2,1.3,0.5c0.4,0.4,0.5,0.8,0.5,1.3v6.4
	c0,0.3-0.1,0.6-0.4,0.9s-0.5,0.4-0.9,0.4H150c-0.3,0-0.5-0.1-0.6-0.3s-0.3-0.4-0.3-0.6c0-0.1,0-0.1-0.1-0.1h-3.2
	c-0.1,0-0.1,0-0.1,0.1c0,0.3-0.1,0.5-0.3,0.7c-0.2,0.2-0.4,0.3-0.7,0.3h-0.3c-0.3,0-0.6-0.1-0.9-0.4s-0.4-0.5-0.4-0.9V31.9z
	 M145.7,36c0,0.1,0.1,0.2,0.2,0.2h3c0.1,0,0.2-0.1,0.2-0.2v-3.3c0-0.1-0.1-0.2-0.2-0.2h-3c-0.1,0-0.2,0.1-0.2,0.2V36z"/>
<path class="st40" d="M172,31.4c0.3-0.3,0.5-0.4,0.9-0.5c0.1,0,0.1,0,0.2,0c0.3,0,0.5,0.1,0.8,0.3c0.3,0.2,0.4,0.5,0.4,0.8
	c0,0.3-0.1,0.6-0.4,0.8c-0.8,0.6-1.3,1.1-1.8,1.4c-0.1,0.1-0.1,0.2,0,0.3c0.6,0.7,1.2,1.3,2,1.8c0.3,0.2,0.4,0.4,0.5,0.7
	c0,0.1,0,0.2,0,0.2c0,0.2-0.1,0.4-0.2,0.6c-0.2,0.3-0.5,0.5-0.8,0.6c-0.1,0-0.2,0-0.3,0c-0.2,0-0.5-0.1-0.7-0.2
	c-1-0.8-1.9-1.8-2.6-3.1c0,0,0,0-0.1,0c0,0,0,0,0,0.1v2.2c0,0.6-0.1,1-0.2,1.3s-0.3,0.6-0.7,0.7c-0.4,0.2-1,0.3-1.8,0.4c0,0,0,0,0,0
	c-0.3,0-0.6-0.1-0.8-0.3c-0.3-0.2-0.4-0.5-0.5-0.8c0-0.1,0-0.1,0-0.2c0-0.2,0-0.3,0.1-0.5c0.2-0.2,0.4-0.3,0.6-0.3h0.6
	c0.1,0,0.2,0,0.3-0.1s0.1-0.1,0.1-0.2v-4.9c0,0,0,0,0,0c0,0,0,0,0,0c-0.7,2.6-1.8,4.5-3.4,5.8c-0.2,0.2-0.4,0.2-0.7,0.2
	c-0.1,0-0.1,0-0.2,0c-0.3-0.1-0.6-0.2-0.8-0.5c-0.2-0.2-0.3-0.4-0.3-0.6c0-0.3,0.1-0.6,0.4-0.8c1-0.8,1.7-1.8,2.3-3c0,0,0-0.1,0-0.1
	c0,0-0.1-0.1-0.1-0.1h-0.1c-0.5,0-0.9-0.2-1.3-0.5c-0.3-0.3-0.5-0.8-0.5-1.3v0c0,0,0-0.1-0.1-0.1s-0.1,0-0.1,0l-0.3,0.1
	c-0.1,0.1-0.3,0.1-0.4,0.1c-0.1,0-0.3,0-0.4-0.1c-0.3-0.1-0.5-0.4-0.5-0.6c0-0.1-0.1-0.1-0.2-0.1l-0.7,0c-0.1,0-0.2,0.1-0.2,0.2v7.6
	c0,0.3-0.1,0.5-0.3,0.8c-0.2,0.2-0.5,0.3-0.8,0.3s-0.6-0.1-0.8-0.3c-0.2-0.2-0.3-0.5-0.3-0.8v-7.4c0-0.1,0-0.1-0.1-0.1
	s-0.1-0.1-0.1-0.1l-1.6,0.1c0,0-0.1,0-0.1,0c-0.3,0-0.5-0.1-0.7-0.3c-0.2-0.2-0.4-0.4-0.4-0.8c0,0,0-0.1,0-0.1
	c0-0.2,0.1-0.5,0.3-0.6c0.2-0.2,0.4-0.4,0.8-0.4l0.3,0c0.1,0,0.2,0,0.3-0.1c0.2-0.3,0.5-0.6,0.8-1c0.1-0.1,0.1-0.2,0-0.4
	c-0.4-0.6-0.9-1.3-1.6-2c-0.2-0.3-0.3-0.5-0.3-0.9c0-0.3,0.1-0.5,0.2-0.8l0.3-0.4c0.1-0.1,0.2-0.2,0.4-0.2c0.2,0,0.3,0,0.4,0.1
	c0,0,0.1,0,0.1,0c0.4-0.8,0.8-1.7,1.1-2.5c0.1-0.3,0.3-0.5,0.6-0.6c0.2-0.1,0.3-0.1,0.5-0.1c0.1,0,0.3,0,0.4,0.1
	c0.3,0.1,0.5,0.3,0.6,0.6c0.1,0.1,0.1,0.3,0.1,0.4c0,0.2,0,0.3-0.1,0.5c-0.7,1.3-1.3,2.4-1.8,3.1c-0.1,0.1-0.1,0.2,0,0.3
	c0.1,0.2,0.3,0.3,0.4,0.5c0,0,0.1,0.1,0.1,0.1c0,0,0.1,0,0.1-0.1c0.5-0.8,0.9-1.5,1.3-2.3c0.1-0.3,0.4-0.5,0.7-0.6
	c0.1-0.1,0.3-0.1,0.4-0.1c0.2,0,0.3,0,0.5,0.1c0.3,0.1,0.4,0.3,0.5,0.6c0,0.1,0,0.2,0,0.3c0,0.2-0.1,0.4-0.2,0.5
	c-1.2,1.8-2.3,3.3-3.2,4.5c0,0,0,0.1,0,0.1s0.1,0.1,0.1,0.1l1.5-0.1c0,0,0.1,0,0.1-0.1s0-0.1,0-0.1c-0.1-0.1-0.1-0.2-0.2-0.4
	c-0.1-0.1-0.1-0.3-0.1-0.4c0-0.1,0-0.2,0.1-0.3c0.1-0.3,0.2-0.4,0.5-0.5c0.1-0.1,0.3-0.1,0.4-0.1c0.1,0,0.2,0,0.4,0.1
	c0.3,0.1,0.5,0.3,0.6,0.5c0.7,1.3,1.1,2.5,1.4,3.5c0,0.1,0,0.2-0.2,0.3v0h2c0.9,0,1.7,0.1,2.4,0.4c0,0,0.1,0,0.1,0c0,0,0,0,0-0.1
	v-1.5c0-0.1-0.1-0.2-0.2-0.2h-2.1c-0.5,0-0.9-0.2-1.3-0.5c-0.3-0.4-0.5-0.8-0.5-1.3v-4.3c0-0.5,0.2-0.9,0.5-1.3
	c0.3-0.4,0.8-0.5,1.3-0.5h1.3c0.1,0,0.2-0.1,0.3-0.2c0.1-0.2,0.2-0.4,0.2-0.6c0.1-0.4,0.4-0.7,0.7-0.9c0.3-0.2,0.6-0.3,0.9-0.3
	c0.1,0,0.2,0,0.3,0c0.3,0.1,0.6,0.2,0.8,0.6c0.1,0.1,0.1,0.3,0.1,0.4c0,0.2,0,0.3-0.1,0.5c-0.1,0.1-0.1,0.2-0.2,0.3c0,0,0,0.1,0,0.1
	c0,0,0.1,0.1,0.1,0.1h2.4c0.5,0,0.9,0.2,1.3,0.5c0.4,0.4,0.5,0.8,0.5,1.3v4.3c0,0.5-0.2,0.9-0.5,1.3c-0.4,0.4-0.8,0.5-1.3,0.5H170
	c-0.1,0-0.1,0-0.1,0.1c0,0.1,0,0.1,0,0.2c0.2,0.8,0.5,1.5,0.8,2.1c0,0,0.1,0.1,0.1,0.1c0,0,0.1,0,0.1,0
	C171.4,32,171.7,31.7,172,31.4z M155.5,33.3c0-0.3,0.2-0.5,0.4-0.7c0.2-0.1,0.4-0.2,0.6-0.2c0.1,0,0.1,0,0.2,0
	c0.3,0,0.5,0.2,0.7,0.4c0.2,0.2,0.2,0.4,0.2,0.6c0,0,0,0.1,0,0.1c-0.2,1.3-0.4,2.5-0.8,3.5c-0.1,0.3-0.3,0.4-0.5,0.5
	c-0.1,0-0.2,0.1-0.3,0.1c-0.1,0-0.3,0-0.4-0.1c-0.3-0.1-0.4-0.3-0.5-0.6c-0.1-0.1-0.1-0.3-0.1-0.4c0-0.1,0-0.2,0.1-0.4
	C155.2,35.5,155.3,34.5,155.5,33.3z M160.6,33.6c0-0.1,0-0.2,0-0.3c0-0.1,0-0.3,0.1-0.4c0.1-0.2,0.3-0.4,0.5-0.5c0.1,0,0.2,0,0.3,0
	c0.1,0,0.3,0,0.4,0.1c0.2,0.1,0.4,0.3,0.5,0.5c0.2,0.6,0.4,1.2,0.5,1.8c0,0.1,0,0.2,0,0.3c0,0.2-0.1,0.4-0.2,0.5
	c-0.1,0.3-0.3,0.4-0.6,0.5c-0.1,0-0.2,0-0.3,0c-0.2,0-0.3,0-0.4-0.1c-0.2-0.1-0.3-0.3-0.4-0.6C161,34.9,160.8,34.3,160.6,33.6z
	 M166.1,23.9c-0.1,0-0.2,0.1-0.2,0.2v0.7c0,0.1,0.1,0.2,0.2,0.2h5.3c0.1,0,0.2-0.1,0.2-0.2v-0.7c0-0.1-0.1-0.2-0.2-0.2H166.1z
	 M166.1,26.8c-0.1,0-0.2,0.1-0.2,0.2v0.7c0,0.1,0.1,0.2,0.2,0.2h5.3c0.1,0,0.2-0.1,0.2-0.2V27c0-0.1-0.1-0.2-0.2-0.2H166.1z"/>
<path class="st40" d="M188,35.9c0,0.1,0.1,0.2,0.2,0.2h7.5c0.4,0,0.7,0.1,0.9,0.4c0.3,0.3,0.4,0.6,0.4,0.9c0,0.4-0.1,0.7-0.4,0.9
	c-0.3,0.3-0.6,0.4-0.9,0.4h-16.8c-0.4,0-0.7-0.1-0.9-0.4c-0.3-0.3-0.4-0.6-0.4-0.9c0-0.4,0.1-0.7,0.4-0.9c0.3-0.3,0.6-0.4,0.9-0.4
	h6.2c0.1,0,0.2-0.1,0.2-0.2V21.4c0-0.4,0.1-0.7,0.4-1c0.3-0.3,0.6-0.4,1-0.4c0.4,0,0.7,0.1,1,0.4c0.3,0.3,0.4,0.6,0.4,1v4.5
	c0,0.1,0.1,0.2,0.2,0.2h6c0.4,0,0.7,0.1,0.9,0.4c0.3,0.3,0.4,0.6,0.4,0.9c0,0.4-0.1,0.7-0.4,0.9c-0.3,0.3-0.6,0.4-0.9,0.4h-6
	c-0.1,0-0.2,0.1-0.2,0.2V35.9z"/>
<path class="st40" d="M205.1,29.1c0.1,0,0.2,0,0.3,0c0.2,0,0.4,0.1,0.5,0.2c0.3,0.2,0.4,0.4,0.5,0.7c0,0.1,0,0.1,0,0.2
	c0,0.3-0.1,0.5-0.2,0.7c-0.2,0.3-0.4,0.5-0.7,0.6c-0.3,0.1-0.5,0.2-0.8,0.2c-0.1,0-0.2,0.1-0.2,0.3V37c0,0.6-0.1,1.1-0.2,1.4
	c-0.1,0.3-0.3,0.6-0.7,0.8c-0.4,0.3-1,0.4-1.8,0.4c0,0-0.1,0-0.1,0c-0.3,0-0.6-0.1-0.8-0.3c-0.3-0.2-0.4-0.5-0.5-0.9
	c0-0.1,0-0.2,0-0.3c0-0.2,0.1-0.4,0.2-0.5c0.2-0.2,0.4-0.4,0.7-0.4c0.3,0,0.4,0,0.5,0c0.1,0,0.2,0,0.3-0.1s0.1-0.1,0.1-0.3v-4.5
	c0-0.1,0-0.1-0.1-0.1c0,0-0.1,0-0.1,0c-0.2,0.1-0.4,0.1-0.6,0.2c-0.1,0-0.2,0.1-0.3,0.1c-0.2,0-0.4-0.1-0.6-0.2
	c-0.3-0.2-0.5-0.4-0.5-0.8c0-0.1,0-0.2,0-0.3c0-0.2,0.1-0.4,0.2-0.6c0.2-0.3,0.4-0.5,0.8-0.6c0.1,0,0.3-0.1,0.6-0.1
	c0.3-0.1,0.5-0.1,0.6-0.2c0.1,0,0.2-0.1,0.2-0.3v-3.3c0-0.1-0.1-0.2-0.2-0.2h-0.9c-0.3,0-0.6-0.1-0.8-0.3c-0.2-0.2-0.3-0.5-0.3-0.8
	c0-0.3,0.1-0.6,0.3-0.8c0.2-0.2,0.5-0.3,0.8-0.3h0.9c0.1,0,0.2-0.1,0.2-0.2V21c0-0.3,0.1-0.6,0.3-0.8c0.2-0.2,0.5-0.3,0.8-0.3
	s0.6,0.1,0.8,0.3c0.2,0.2,0.3,0.5,0.3,0.8v2.7c0,0.1,0.1,0.2,0.2,0.2h0.6c0.3,0,0.6,0.1,0.8,0.3c0.2,0.2,0.3,0.5,0.3,0.8
	c0,0.3-0.1,0.6-0.3,0.8c-0.2,0.2-0.5,0.3-0.8,0.3h-0.6c-0.1,0-0.2,0.1-0.2,0.2V29c0,0.1,0,0.1,0.1,0.1c0,0,0.1,0,0.1,0L205.1,29.1z
	 M219.1,30.7c0.2,0.2,0.3,0.5,0.3,0.8c0,0.3-0.1,0.6-0.3,0.8c-0.2,0.2-0.5,0.3-0.8,0.3h-2.6c0,0-0.1,0-0.1,0.1s0,0.1,0,0.1
	c0.9,1.3,2,2.4,3.3,3.4c0.3,0.2,0.4,0.4,0.5,0.7c0,0.1,0,0.1,0,0.1c0,0.3-0.1,0.5-0.3,0.7c-0.2,0.3-0.5,0.4-0.9,0.5
	c-0.1,0-0.1,0-0.2,0c-0.3,0-0.5-0.1-0.7-0.3c-1.1-0.9-2-2-2.9-3.3c0,0-0.1,0-0.1,0c0,0,0,0,0,0.1v3.7c0,0.3-0.1,0.6-0.3,0.8
	c-0.2,0.2-0.5,0.4-0.8,0.4s-0.6-0.1-0.9-0.4c-0.2-0.2-0.4-0.5-0.4-0.8v-3.8c0,0,0,0,0-0.1c0,0,0,0-0.1,0c-1,1.4-2.2,2.6-3.5,3.5
	c-0.2,0.2-0.5,0.2-0.7,0.2c-0.1,0-0.2,0-0.3,0c-0.3-0.1-0.6-0.3-0.9-0.5c-0.2-0.2-0.2-0.4-0.2-0.6c0-0.1,0-0.1,0-0.2
	c0.1-0.3,0.2-0.6,0.5-0.7c1.5-0.9,2.8-2.1,3.8-3.5c0,0,0-0.1,0-0.1s-0.1-0.1-0.1-0.1H208c-0.3,0-0.6-0.1-0.8-0.3
	c-0.2-0.2-0.3-0.5-0.3-0.8c0-0.3,0.1-0.6,0.3-0.8c0.2-0.2,0.5-0.3,0.8-0.3h3.7c0.1,0,0.2-0.1,0.2-0.2v-0.8c0-0.3,0.1-0.6,0.4-0.9
	c0.2-0.2,0.5-0.4,0.9-0.4s0.6,0.1,0.8,0.4c0.2,0.2,0.3,0.5,0.3,0.9v0.8c0,0.1,0.1,0.2,0.2,0.2h3.8C218.6,30.4,218.9,30.5,219.1,30.7
	z M216.1,20.3c0.2,0,0.3-0.1,0.5-0.1c0.2,0,0.4,0,0.6,0.1c0.4,0.1,0.7,0.3,1,0.6c0.1,0.2,0.2,0.3,0.2,0.5c0,0.1,0,0.2,0,0.3
	c-0.1,0.3-0.3,0.5-0.6,0.5c-2.6,0.6-5.7,1-9.4,1.3c0,0-0.1,0-0.1,0c-0.3,0-0.5-0.1-0.7-0.3c-0.2-0.2-0.4-0.4-0.5-0.7
	c0-0.1,0-0.2,0-0.3c0-0.2,0-0.3,0.1-0.4c0.1-0.2,0.3-0.3,0.6-0.4C211,21.2,213.8,20.8,216.1,20.3z M210.1,26.9c0,0.1,0,0.2,0,0.3
	c0,0.2,0,0.4-0.1,0.5c-0.2,0.3-0.4,0.4-0.7,0.5c-0.1,0-0.2,0-0.3,0c-0.2,0-0.4-0.1-0.5-0.2c-0.3-0.2-0.4-0.4-0.5-0.7
	c-0.2-0.7-0.4-1.3-0.7-2c0-0.1-0.1-0.2-0.1-0.3c0-0.1,0-0.3,0.1-0.4c0.1-0.2,0.3-0.4,0.6-0.5c0.1,0,0.2,0,0.3,0c0.2,0,0.4,0,0.5,0.1
	c0.3,0.1,0.5,0.3,0.6,0.6C209.6,25.6,209.9,26.3,210.1,26.9z M213.9,26.2c0,0.1,0,0.1,0,0.2c0,0.2-0.1,0.4-0.2,0.6
	c-0.2,0.3-0.4,0.4-0.8,0.5c-0.1,0-0.1,0-0.2,0c-0.2,0-0.4-0.1-0.6-0.2c-0.3-0.2-0.4-0.4-0.4-0.7c-0.1-0.6-0.2-1.2-0.4-1.8
	c0-0.1,0-0.2,0-0.3c0-0.2,0-0.3,0.1-0.5c0.1-0.3,0.3-0.4,0.6-0.4c0.1,0,0.2,0,0.3,0c0.2,0,0.4,0.1,0.6,0.2c0.3,0.2,0.5,0.4,0.6,0.7
	C213.7,25.1,213.8,25.7,213.9,26.2z M217.3,28.2c-0.2,0.3-0.4,0.4-0.7,0.5c-0.1,0-0.3,0.1-0.4,0.1c-0.2,0-0.3,0-0.5-0.1
	c-0.3-0.1-0.4-0.3-0.5-0.5c0-0.1-0.1-0.2-0.1-0.3c0-0.2,0-0.3,0.1-0.5c0.6-1,1.1-2,1.5-3c0.1-0.3,0.4-0.6,0.7-0.7
	c0.2-0.1,0.3-0.1,0.5-0.1c0.2,0,0.3,0,0.4,0.1c0.3,0.1,0.5,0.3,0.7,0.7c0.1,0.1,0.1,0.3,0.1,0.4c0,0.2,0,0.4-0.1,0.5
	C218.4,26.3,217.8,27.3,217.3,28.2z"/>
<path class="st40" d="M223.8,35.6c0.1-0.3,0.3-0.5,0.6-0.7c0.2-0.1,0.4-0.2,0.6-0.2c0.1,0,0.2,0,0.3,0c0.3,0.1,0.5,0.2,0.7,0.5
	c0.1,0.2,0.1,0.3,0.1,0.5c0,0.1,0,0.2-0.1,0.4c-0.4,1-0.9,2-1.5,2.8c-0.2,0.3-0.4,0.4-0.7,0.4c-0.1,0-0.1,0-0.2,0
	c-0.3,0-0.5-0.1-0.7-0.2c-0.2-0.2-0.4-0.4-0.4-0.7c0-0.1,0-0.1,0-0.2c0-0.2,0.1-0.4,0.2-0.6C223.1,37,223.5,36.4,223.8,35.6z
	 M227.8,20.6c0.5,0,0.9,0.2,1.3,0.5c0.4,0.4,0.5,0.8,0.5,1.3v10.1c0,0.5-0.2,0.9-0.5,1.3c-0.4,0.4-0.8,0.5-1.3,0.5H225
	c-0.5,0-0.9-0.2-1.3-0.5s-0.5-0.8-0.5-1.3V22.4c0-0.5,0.2-0.9,0.5-1.3s0.8-0.5,1.3-0.5H227.8z M227.2,24.6c0.1,0,0.2-0.1,0.2-0.2
	v-1.5c0-0.1-0.1-0.2-0.2-0.2h-1.7c-0.1,0-0.2,0.1-0.2,0.2v1.5c0,0.1,0.1,0.2,0.2,0.2H227.2z M227.2,28.4c0.1,0,0.2-0.1,0.2-0.2v-1.6
	c0-0.1-0.1-0.2-0.2-0.2h-1.7c-0.1,0-0.2,0.1-0.2,0.2v1.6c0,0.1,0.1,0.2,0.2,0.2H227.2z M227.2,32.3c0.1,0,0.2-0.1,0.2-0.2v-1.6
	c0-0.1-0.1-0.2-0.2-0.2h-1.7c-0.1,0-0.2,0.1-0.2,0.2v1.6c0,0.1,0.1,0.2,0.2,0.2H227.2z M227.2,36.1c-0.1-0.1-0.1-0.3-0.1-0.4
	c0-0.1,0-0.2,0-0.3c0.1-0.3,0.3-0.4,0.5-0.5c0.2-0.1,0.3-0.1,0.5-0.1c0.1,0,0.3,0,0.4,0.1c0.3,0.1,0.5,0.3,0.6,0.5
	c0.3,0.5,0.6,1.1,0.9,1.6c0.1,0.2,0.1,0.3,0.1,0.5c0,0.1,0,0.3-0.1,0.4c-0.1,0.3-0.3,0.5-0.6,0.6c-0.1,0.1-0.3,0.1-0.4,0.1
	c-0.1,0-0.3,0-0.4-0.1c-0.3-0.1-0.5-0.3-0.6-0.6C227.8,37.3,227.5,36.7,227.2,36.1z M241.2,34.5c0.2,0,0.4,0.1,0.6,0.3
	s0.3,0.4,0.3,0.6v0c0,0.2-0.1,0.4-0.3,0.6s-0.4,0.3-0.6,0.3c-0.1,0-0.1,0-0.1,0.1v1c0,0.6-0.1,1-0.2,1.3c-0.1,0.3-0.4,0.5-0.7,0.7
	c-0.4,0.2-1.1,0.3-2,0.4c0,0,0,0,0,0c-0.3,0-0.5-0.1-0.8-0.3c-0.3-0.2-0.4-0.4-0.5-0.8c0-0.1,0-0.2,0-0.3c0-0.1,0-0.3,0.1-0.4
	c0.1-0.2,0.3-0.3,0.6-0.3h0.9c0.1,0,0.2,0,0.3-0.1c0,0,0.1-0.1,0.1-0.3v-0.9c0-0.1-0.1-0.2-0.2-0.2h-5.1c-0.1,0-0.2,0.1-0.2,0.2v2.1
	c0,0.3-0.1,0.6-0.3,0.8c-0.2,0.2-0.5,0.3-0.8,0.3c-0.3,0-0.6-0.1-0.8-0.3c-0.2-0.2-0.3-0.5-0.3-0.8v-2.2c0-0.1,0-0.1-0.1-0.1h-0.1
	c-0.3,0-0.5-0.1-0.6-0.3c-0.2-0.2-0.3-0.4-0.3-0.6s0.1-0.5,0.3-0.6c0.2-0.2,0.4-0.3,0.6-0.3h0.1c0.1,0,0.1,0,0.1-0.1V31
	c0-0.5,0.2-0.9,0.5-1.3c0.4-0.4,0.8-0.5,1.3-0.5h1.8c0.1,0,0.2-0.1,0.2-0.2v-0.4c0-0.1-0.1-0.2-0.2-0.2h-3.8c-0.3,0-0.5-0.1-0.6-0.3
	c-0.2-0.2-0.3-0.4-0.3-0.6c0-0.3,0.1-0.5,0.3-0.6c0.2-0.2,0.4-0.3,0.6-0.3h1.6c0.1,0,0.2-0.1,0.2-0.2v-0.4c0-0.1-0.1-0.2-0.2-0.2
	h-0.8c-0.2,0-0.4-0.1-0.6-0.2c-0.2-0.2-0.2-0.4-0.2-0.6s0.1-0.4,0.2-0.6c0.2-0.2,0.4-0.3,0.6-0.3h0.8c0.1,0,0.2-0.1,0.2-0.2v-0.4
	c0-0.1-0.1-0.2-0.2-0.2h-1.2c-0.3,0-0.5-0.1-0.6-0.3s-0.3-0.4-0.3-0.6c0-0.2,0.1-0.5,0.3-0.6c0.2-0.2,0.4-0.3,0.6-0.3h1.3
	c0.1,0,0.2-0.1,0.2-0.2v-0.3c0-0.3,0.1-0.6,0.3-0.8c0.2-0.2,0.5-0.3,0.8-0.3s0.6,0.1,0.8,0.3c0.2,0.2,0.3,0.5,0.3,0.8v0.3
	c0,0.1,0.1,0.2,0.2,0.2h1.9c0.1,0,0.2-0.1,0.2-0.2v-0.3c0-0.3,0.1-0.6,0.3-0.8c0.2-0.2,0.5-0.3,0.8-0.3s0.6,0.1,0.8,0.3
	c0.2,0.2,0.3,0.5,0.3,0.8v0.3c0,0.1,0.1,0.2,0.2,0.2h1.3c0.2,0,0.4,0.1,0.6,0.3c0.2,0.2,0.3,0.4,0.3,0.6c0,0.2-0.1,0.5-0.3,0.6
	c-0.2,0.2-0.4,0.3-0.6,0.3h-1.2c-0.1,0-0.2,0.1-0.2,0.2v0.4c0,0.1,0.1,0.2,0.2,0.2h0.9c0.2,0,0.4,0.1,0.6,0.3
	c0.2,0.2,0.2,0.4,0.2,0.6s-0.1,0.4-0.2,0.6c-0.2,0.2-0.4,0.2-0.6,0.2h-0.9c-0.1,0-0.2,0.1-0.2,0.2v0.4c0,0.1,0.1,0.2,0.2,0.2h1.6
	c0.3,0,0.5,0.1,0.6,0.3c0.2,0.2,0.3,0.4,0.3,0.6c0,0.3-0.1,0.5-0.3,0.6c-0.2,0.2-0.4,0.3-0.6,0.3h-3.8c-0.1,0-0.2,0.1-0.2,0.2v0.4
	c0,0.1,0.1,0.2,0.2,0.2h1.9c0.5,0,0.9,0.2,1.3,0.5c0.4,0.4,0.5,0.8,0.5,1.3v3.5C241.1,34.5,241.1,34.5,241.2,34.5z M234.9,31.1
	c0-0.1-0.1-0.2-0.2-0.2h-1.2c-0.1,0-0.2,0.1-0.2,0.2v0.6c0,0.1,0.1,0.2,0.2,0.2h1.2c0.1,0,0.2-0.1,0.2-0.2V31.1z M233.5,33.5
	c-0.1,0-0.2,0.1-0.2,0.2v0.6c0,0.1,0.1,0.2,0.2,0.2h1.2c0.1,0,0.2-0.1,0.2-0.2v-0.6c0-0.1-0.1-0.2-0.2-0.2H233.5z M235.1,23.2
	c-0.1,0-0.2,0.1-0.2,0.2v0.4c0,0.1,0.1,0.2,0.2,0.2h1.8c0.1,0,0.2-0.1,0.2-0.2v-0.4c0-0.1-0.1-0.2-0.2-0.2H235.1z M235.1,25.7
	c-0.1,0-0.2,0.1-0.2,0.2v0.4c0,0.1,0.1,0.2,0.2,0.2h1.8c0.1,0,0.2-0.1,0.2-0.2v-0.4c0-0.1-0.1-0.2-0.2-0.2H235.1z M238.8,31.1
	c0-0.1-0.1-0.2-0.2-0.2h-1.2c-0.1,0-0.2,0.1-0.2,0.2v0.6c0,0.1,0.1,0.2,0.2,0.2h1.2c0.1,0,0.2-0.1,0.2-0.2V31.1z M237.1,34.3
	c0,0.1,0.1,0.2,0.2,0.2h1.2c0.1,0,0.2-0.1,0.2-0.2v-0.6c0-0.1-0.1-0.2-0.2-0.2h-1.2c-0.1,0-0.2,0.1-0.2,0.2V34.3z"/>
<path class="st40" d="M262.2,20.7c0.5,0,0.9,0.2,1.3,0.5c0.4,0.4,0.5,0.8,0.5,1.3v14.7c0,0.6-0.1,1.1-0.2,1.4
	c-0.1,0.3-0.4,0.6-0.7,0.8c-0.5,0.2-1.2,0.4-2.1,0.4c0,0,0,0,0,0c-0.3,0-0.6-0.1-0.8-0.3c-0.3-0.2-0.4-0.5-0.5-0.8
	c0-0.1,0-0.2,0-0.3c0-0.2,0-0.3,0.1-0.5c0.1-0.2,0.3-0.3,0.6-0.3h0c0.3,0,0.6,0,1,0c0.1,0,0.2-0.1,0.3-0.1c0.1-0.1,0.1-0.2,0.1-0.3
	V23.1c0-0.1-0.1-0.2-0.2-0.2H255c-0.1,0-0.2,0.1-0.2,0.2v15.5c0,0.3-0.1,0.6-0.3,0.8c-0.2,0.2-0.5,0.3-0.8,0.3
	c-0.3,0-0.6-0.1-0.8-0.3c-0.2-0.2-0.3-0.5-0.3-0.8v-2.4c0,0,0-0.1-0.1-0.1c0,0-0.1,0-0.1,0c-0.1,0.1-0.3,0.1-0.4,0.1
	c-0.2,0-0.4-0.1-0.6-0.2c-0.3-0.2-0.5-0.5-0.6-0.9c-0.1-0.5-0.3-1-0.4-1.5c0-0.1-0.1-0.2-0.1-0.3c0-0.1,0-0.3,0.1-0.4
	c0.1-0.2,0.3-0.4,0.5-0.5c0.1,0,0.2,0,0.3,0c0.2,0,0.3,0,0.4,0.1c0.2,0.1,0.4,0.3,0.5,0.5c0.1,0.3,0.3,0.7,0.4,1.2c0,0,0,0,0,0
	s0,0,0,0v-2.6c0,0,0-0.1-0.1-0.1c0,0-0.1,0-0.1,0l-0.1,0.1c-0.1,0.1-0.3,0.1-0.4,0.1c-0.1,0-0.3,0-0.4-0.1c-0.3-0.1-0.5-0.4-0.5-0.6
	c0-0.1-0.1-0.1-0.2-0.1l-0.7,0c-0.1,0-0.2,0.1-0.2,0.2v7.6c0,0.3-0.1,0.5-0.3,0.8c-0.2,0.2-0.5,0.3-0.8,0.3c-0.3,0-0.6-0.1-0.8-0.3
	c-0.2-0.2-0.3-0.5-0.3-0.8v-7.4c0-0.1,0-0.1-0.1-0.1s-0.1-0.1-0.1-0.1l-1.6,0.1c0,0-0.1,0-0.1,0c-0.3,0-0.5-0.1-0.7-0.3
	c-0.2-0.2-0.4-0.4-0.4-0.8c0,0,0-0.1,0-0.1c0-0.2,0.1-0.5,0.3-0.6c0.2-0.2,0.4-0.4,0.8-0.4l0.3,0c0.1,0,0.2,0,0.3-0.1
	c0.2-0.3,0.5-0.6,0.8-1c0.1-0.1,0.1-0.2,0-0.4c-0.4-0.6-0.9-1.3-1.6-2c-0.2-0.3-0.3-0.5-0.3-0.9c0-0.3,0.1-0.5,0.2-0.8l0.3-0.4
	c0.1-0.1,0.2-0.2,0.4-0.2c0.2,0,0.3,0,0.4,0.1c0,0,0.1,0,0.1,0c0.4-0.8,0.8-1.7,1.1-2.5c0.1-0.3,0.3-0.5,0.6-0.6
	c0.2-0.1,0.3-0.1,0.5-0.1c0.1,0,0.3,0,0.4,0.1c0.3,0.1,0.5,0.3,0.6,0.6c0.1,0.1,0.1,0.3,0.1,0.4c0,0.2,0,0.3-0.1,0.5
	c-0.7,1.3-1.3,2.4-1.8,3.1c-0.1,0.1-0.1,0.2,0,0.3c0.1,0.2,0.3,0.3,0.4,0.5c0,0,0.1,0.1,0.1,0.1s0.1,0,0.1-0.1
	c0.5-0.8,0.9-1.5,1.3-2.3c0.1-0.3,0.4-0.5,0.7-0.6c0.1-0.1,0.3-0.1,0.4-0.1c0.2,0,0.3,0,0.5,0.1c0.3,0.1,0.4,0.3,0.5,0.6
	c0,0.1,0,0.2,0,0.3c0,0.2-0.1,0.4-0.2,0.5c-1.2,1.8-2.3,3.3-3.2,4.5c0,0,0,0.1,0,0.1s0.1,0.1,0.1,0.1l1.5-0.1c0,0,0.1,0,0.1-0.1
	s0-0.1,0-0.1c-0.1-0.1-0.1-0.2-0.2-0.4c-0.1-0.1-0.1-0.3-0.1-0.4c0-0.1,0-0.2,0.1-0.3c0.1-0.3,0.2-0.4,0.5-0.5
	c0.1-0.1,0.3-0.1,0.4-0.1c0.1,0,0.3,0,0.4,0.1c0.3,0.1,0.4,0.3,0.6,0.5c0.3,0.6,0.6,1.2,0.8,1.8c0,0,0,0,0.1,0s0,0,0,0v-6.7
	c0-0.5,0.2-0.9,0.5-1.3c0.4-0.4,0.8-0.5,1.3-0.5H262.2z M245.2,33.3c0-0.3,0.2-0.5,0.4-0.7c0.2-0.1,0.4-0.2,0.6-0.2
	c0.1,0,0.1,0,0.2,0c0.3,0,0.5,0.2,0.7,0.4c0.2,0.2,0.2,0.4,0.2,0.6c0,0,0,0.1,0,0.1c-0.2,1.3-0.4,2.5-0.8,3.5
	c-0.1,0.3-0.3,0.4-0.5,0.5c-0.1,0-0.2,0.1-0.3,0.1c-0.1,0-0.3,0-0.4-0.1c-0.3-0.1-0.4-0.3-0.5-0.6c-0.1-0.1-0.1-0.3-0.1-0.4
	c0-0.1,0-0.2,0.1-0.4C244.9,35.5,245.1,34.5,245.2,33.3z M258.4,34.6h1.4c0,0,0.1,0,0.1,0c0,0,0,0,0,0c0.3,0,0.5,0.1,0.7,0.2
	c0.2,0.2,0.3,0.4,0.3,0.6c0,0,0,0.1,0,0.1c0,0.3-0.1,0.5-0.2,0.7c-0.2,0.2-0.4,0.3-0.7,0.3c-0.1,0-0.2,0-0.3,0h-1.4
	c-1,0-1.6-0.2-1.9-0.6c-0.3-0.4-0.5-1.1-0.5-2.1v-1.8c0-0.1,0-0.1-0.1-0.1c-0.2,0-0.3-0.1-0.4-0.2c-0.1-0.1-0.2-0.3-0.2-0.4V31
	c0-0.3,0.1-0.5,0.3-0.7s0.4-0.3,0.7-0.3h0.7c0.1,0,0.2-0.1,0.2-0.2v-1.3c0-0.1-0.1-0.2-0.2-0.2h-0.6c-0.3,0-0.5-0.1-0.7-0.3
	s-0.3-0.4-0.3-0.7v-0.3c0-0.2,0.1-0.3,0.2-0.5c0.1-0.1,0.3-0.2,0.5-0.2c0.1,0,0.1,0,0.1-0.1c-0.1-0.5-0.2-1.1-0.4-1.7
	c-0.1-0.2-0.1-0.4,0-0.6c0.1-0.2,0.2-0.3,0.4-0.4c0.2-0.1,0.4-0.1,0.6,0s0.4,0.2,0.4,0.4c0.1,0.3,0.2,0.7,0.3,1c0,0.1,0,0.2,0,0.3
	c0,0.2,0,0.3-0.1,0.5c-0.1,0.3-0.3,0.4-0.6,0.5c0,0,0,0,0,0c0,0,0,0,0,0h2.4c0,0,0,0,0,0c0,0,0,0,0,0c-0.2-0.1-0.4-0.2-0.4-0.4
	c-0.1-0.2-0.1-0.4,0-0.6c0.1-0.4,0.2-0.8,0.3-1.1c0.1-0.3,0.2-0.4,0.4-0.6c0.2-0.1,0.3-0.1,0.5-0.1c0.1,0,0.2,0,0.3,0
	c0.3,0.1,0.4,0.2,0.5,0.5c0.1,0.1,0.1,0.2,0.1,0.4c0,0.1,0,0.2-0.1,0.4c-0.1,0.1-0.2,0.4-0.4,0.8c-0.2,0.4-0.3,0.7-0.4,0.8
	c0,0.1,0,0.1,0.1,0.1c0.3,0,0.5,0.1,0.7,0.3s0.3,0.4,0.3,0.6v0c0,0.3-0.1,0.5-0.3,0.7c-0.2,0.2-0.4,0.3-0.7,0.3h-0.7
	c-0.1,0-0.2,0.1-0.2,0.2v1.3c0,0.1,0.1,0.2,0.2,0.2h0.7c0.3,0,0.5,0.1,0.7,0.3c0.2,0.2,0.3,0.4,0.3,0.7c0,0.3-0.1,0.5-0.3,0.7
	c-0.2,0.2-0.4,0.3-0.7,0.3h-1.9c-0.1,0-0.2,0.1-0.2,0.2v1.7c0,0.3,0,0.5,0.1,0.6S258.3,34.6,258.4,34.6z"/>
</svg>
