<svg xmlns="http://www.w3.org/2000/svg" width="40" height="40" viewBox="0 0 40 40">
  <g id="圖層_2" data-name="圖層 2">
    <g id="圖層_1-2" data-name="圖層 1">
      <circle cx="20" cy="20" r="20" style="fill: #9db3a0"/>
      <path d="M27.4,29.2l-.7-13.4a.77283.77283,0,0,0-.8-.7H24V12.7a4.4,4.4,0,0,0-8.8,0V15H13a.84854.84854,0,0,0-.8.7l-.7,13.4a1.42132,1.42132,0,0,0,.2.6c.1.2.3.2.5.2H26.5a.76385.76385,0,0,0,.5-.2A.51031.51031,0,0,0,27.4,29.2ZM16.8,12.6a2.9,2.9,0,0,1,5.8,0V15H16.9V12.6ZM13.2,28.5l.6-11.9h1.5v.9a.8.8,0,1,0,1.6,0v-.9h5.7v.9a.78874.78874,0,0,0,.8.8.736.736,0,0,0,.8-.8v-.9h1.2L26,28.5Z" style="fill: #fff"/>
    </g>
  </g>
</svg>
